<svg xmlns="http://www.w3.org/2000/svg" xmlns:xlink="http://www.w3.org/1999/xlink" width="5000" zoomAndPan="magnify" viewBox="0 0 3750 2999.999989" height="4000" preserveAspectRatio="xMidYMid meet" version="1.0"><defs><g/><clipPath id="69d8dafc36"><path d="M 3396.269531 1302.847656 L 3485.472656 1302.847656 L 3485.472656 1455.09375 L 3396.269531 1455.09375 Z M 3396.269531 1302.847656 " clip-rule="nonzero"/></clipPath><clipPath id="85e0591f48"><path d="M 3423.871094 1426.613281 L 3451.15625 1426.613281 L 3451.15625 1454.976562 L 3423.871094 1454.976562 Z M 3423.871094 1426.613281 " clip-rule="nonzero"/></clipPath><clipPath id="733414cd50"><path d="M 3429.824219 1391.9375 L 3457.109375 1391.9375 L 3457.109375 1426.613281 L 3429.824219 1426.613281 Z M 3429.824219 1391.9375 " clip-rule="nonzero"/></clipPath><clipPath id="a13f4018e0"><path d="M 3552.570312 1404.300781 L 3579.851562 1404.300781 L 3579.851562 1432.667969 L 3552.570312 1432.667969 Z M 3552.570312 1404.300781 " clip-rule="nonzero"/></clipPath><clipPath id="20d3ca26e5"><path d="M 105.894531 26.25 L 1497.1875 26.25 L 1497.1875 2402.945312 L 105.894531 2402.945312 Z M 105.894531 26.25 " clip-rule="nonzero"/></clipPath><clipPath id="88d73ee453"><path d="M 537.199219 1960.058594 L 963.507812 1960.058594 L 963.507812 2403 L 537.199219 2403 Z M 537.199219 1960.058594 " clip-rule="nonzero"/></clipPath><clipPath id="7cbd9a023c"><path d="M 630.203125 1418.28125 L 1056.511719 1418.28125 L 1056.511719 1960.058594 L 630.203125 1960.058594 Z M 630.203125 1418.28125 " clip-rule="nonzero"/></clipPath><clipPath id="e1988daf5f"><path d="M 2548.097656 1611.445312 L 2974.40625 1611.445312 L 2974.40625 2054.65625 L 2548.097656 2054.65625 Z M 2548.097656 1611.445312 " clip-rule="nonzero"/></clipPath></defs><g clip-path="url(#69d8dafc36)"><path fill="#494949" d="M 3430.570312 1357.246094 C 3429.929688 1357 3428.558594 1359.4375 3428.496094 1359.558594 C 3427.949219 1360.503906 3425.691406 1364.492188 3427.460938 1367.414062 C 3428.070312 1368.417969 3429.199219 1369.394531 3429.898438 1369.148438 C 3430.113281 1369.058594 3430.449219 1368.785156 3430.722656 1365.34375 C 3430.84375 1363.667969 3430.785156 1363.515625 3430.84375 1360.136719 C 3430.84375 1358.003906 3430.875 1357.335938 3430.570312 1357.246094 Z M 3433.375 1390.070312 C 3433.007812 1387.175781 3431.089844 1381.296875 3430.449219 1380.933594 C 3429.808594 1380.597656 3429.6875 1385.804688 3431.027344 1387.417969 C 3432.371094 1389.035156 3431.667969 1389.398438 3432.582031 1395.398438 C 3433.496094 1401.394531 3436.730469 1400.605469 3436.730469 1400.605469 C 3437.644531 1400.605469 3433.742188 1392.960938 3433.375 1390.070312 Z M 3449.046875 1412.054688 C 3450.265625 1411.597656 3450.023438 1399.234375 3450.023438 1399.234375 C 3450.023438 1399.234375 3449.808594 1392.382812 3449.320312 1391.589844 C 3448.832031 1390.769531 3448.070312 1393.328125 3448.070312 1393.328125 C 3448.070312 1393.328125 3447.828125 1412.511719 3449.046875 1412.054688 Z M 3448.773438 1374.296875 C 3448.773438 1374.296875 3447.828125 1373.992188 3447.582031 1376.09375 C 3447.339844 1378.164062 3448.3125 1383.429688 3448.160156 1384.738281 C 3448.039062 1386.050781 3448.132812 1390.070312 3448.132812 1390.070312 C 3448.132812 1390.070312 3448.894531 1391.589844 3449.777344 1386.839844 C 3450.664062 1382.089844 3453.4375 1381.664062 3452.003906 1378.285156 C 3450.601562 1374.933594 3450.328125 1374.265625 3448.773438 1374.296875 Z M 3451.789062 1366.011719 C 3451.914062 1363.820312 3451.882812 1360.59375 3451.789062 1357.761719 C 3451.699219 1354.929688 3451.300781 1358.492188 3450.511719 1361.871094 C 3449.6875 1365.222656 3448.3125 1364.644531 3447.035156 1367.78125 C 3445.753906 1370.914062 3449.839844 1372.53125 3449.839844 1372.53125 C 3451.179688 1373.261719 3451.636719 1368.207031 3451.789062 1366.011719 Z M 3454.898438 1443.507812 C 3456.058594 1443.628906 3456.304688 1441.773438 3455.90625 1440.617188 C 3455.511719 1439.457031 3453.070312 1436.808594 3453.285156 1438.148438 C 3453.496094 1439.488281 3451.089844 1441.4375 3451.089844 1441.4375 C 3449.109375 1443.660156 3453.742188 1443.386719 3454.898438 1443.507812 Z M 3459.078125 1439.246094 C 3460.355469 1437.875 3460.113281 1437.601562 3460.113281 1437.601562 C 3460.113281 1437.601562 3457.339844 1434.128906 3456.457031 1432.515625 C 3455.570312 1430.902344 3454.5625 1427.644531 3453.191406 1425.96875 C 3451.820312 1424.296875 3451.914062 1429.625 3452.492188 1431.601562 C 3453.070312 1433.582031 3453.40625 1434.496094 3454.105469 1436.140625 C 3454.808594 1437.785156 3457.246094 1440.738281 3457.246094 1440.738281 C 3458.527344 1442.441406 3457.796875 1440.617188 3459.078125 1439.246094 Z M 3467.035156 1445.730469 C 3468.742188 1445.183594 3468.101562 1443.507812 3467.980469 1441.773438 C 3467.859375 1440.039062 3466.027344 1440.859375 3464.167969 1440.859375 C 3462.308594 1440.859375 3461.609375 1438.910156 3460.570312 1439.246094 C 3459.535156 1439.582031 3459.078125 1442.503906 3459.078125 1442.503906 C 3460.9375 1444.664062 3465.328125 1446.28125 3467.035156 1445.730469 Z M 3461.457031 1430.566406 C 3461.179688 1428.710938 3464.75 1427.886719 3466.578125 1426.730469 C 3468.4375 1425.574219 3463.800781 1424.171875 3462.492188 1424.355469 C 3461.179688 1424.539062 3459.167969 1422.101562 3457.675781 1422.101562 C 3456.179688 1422.101562 3455.359375 1425.90625 3456.273438 1427.886719 C 3457.1875 1429.867188 3458.132812 1430.78125 3458.589844 1433.308594 C 3459.046875 1435.835938 3460.785156 1436.078125 3460.785156 1436.078125 C 3461.667969 1436.503906 3461.730469 1432.394531 3461.457031 1430.566406 Z M 3439.59375 1439.214844 C 3439.59375 1439.214844 3442.308594 1436.445312 3440.875 1435.347656 C 3439.472656 1434.25 3440.050781 1432.972656 3439.59375 1431.238281 C 3439.136719 1429.5 3440.296875 1427.886719 3437.859375 1427.886719 C 3435.417969 1427.886719 3430.90625 1430.660156 3431.484375 1431.9375 C 3432.066406 1433.214844 3434.382812 1435.652344 3434.382812 1437.601562 C 3434.382812 1439.550781 3439.59375 1439.214844 3439.59375 1439.214844 Z M 3442.398438 1444.421875 C 3444.960938 1445.335938 3446.882812 1443.84375 3448.773438 1443.023438 C 3450.664062 1442.199219 3447.003906 1440.25 3449.808594 1440.039062 C 3452.613281 1439.792969 3452.21875 1434.828125 3451.058594 1433.339844 C 3449.902344 1431.816406 3451.058594 1430.324219 3451.058594 1427.429688 C 3451.058594 1424.539062 3443.652344 1426.515625 3441.210938 1428.464844 C 3438.800781 1430.445312 3442.703125 1434.007812 3442.367188 1436.324219 C 3442.035156 1438.636719 3440.023438 1441.070312 3440.023438 1441.070312 C 3440.023438 1441.070312 3439.839844 1443.507812 3442.398438 1444.421875 Z M 3435.570312 1452.398438 C 3436.027344 1454.59375 3448.773438 1455.292969 3449.839844 1455.050781 C 3450.90625 1454.804688 3446.914062 1448.351562 3444.71875 1446.371094 C 3442.523438 1444.390625 3438.925781 1445.699219 3438.925781 1445.699219 C 3439.046875 1443.628906 3437.644531 1440.921875 3435.570312 1440.128906 C 3433.496094 1439.304688 3435.113281 1442.777344 3430.691406 1445.699219 C 3426.273438 1448.625 3428.621094 1449.265625 3429.289062 1451.121094 C 3429.992188 1452.980469 3435.082031 1450.207031 3435.082031 1450.207031 C 3435.082031 1450.207031 3435.082031 1450.207031 3435.570312 1452.398438 Z M 3449.902344 1451.484375 C 3452.125 1453.585938 3455.207031 1453.496094 3456.972656 1453.464844 C 3459.871094 1453.375 3464.75 1452.398438 3465.207031 1449.996094 C 3465.386719 1449.019531 3464.777344 1448.074219 3464.503906 1447.679688 C 3463.589844 1446.28125 3462.582031 1446.585938 3460.449219 1445.03125 C 3458.804688 1443.8125 3458.375 1442.898438 3457.550781 1443.050781 C 3456.789062 1443.203125 3456.851562 1444.054688 3455.9375 1444.542969 C 3454.871094 1445.121094 3454.136719 1444.359375 3452.125 1444.300781 C 3451.515625 1444.269531 3448.648438 1444.179688 3447.828125 1445.699219 C 3447.492188 1446.308594 3447.644531 1446.980469 3447.828125 1447.769531 C 3447.886719 1448.105469 3448.34375 1449.996094 3449.902344 1451.484375 Z M 3464.261719 1439.125 C 3464.597656 1439.304688 3465.570312 1439.246094 3467.492188 1439.125 C 3470.113281 1438.972656 3470.449219 1438.820312 3470.722656 1438.542969 C 3471.457031 1437.8125 3470.816406 1437.054688 3471.304688 1435.316406 C 3471.914062 1433.125 3473.253906 1432.972656 3473.375 1431.265625 C 3473.46875 1430.109375 3472.980469 1428.769531 3471.972656 1428.039062 C 3469.929688 1426.515625 3466.730469 1428.40625 3466.179688 1428.738281 C 3465.691406 1429.042969 3463.191406 1430.507812 3462.582031 1433.492188 C 3462.25 1435.410156 3462.644531 1438.269531 3464.261719 1439.125 Z M 3425.84375 1445.121094 C 3429.5625 1447.4375 3431.761719 1442.566406 3433.039062 1439.335938 C 3434.320312 1436.109375 3431.058594 1433.09375 3427.125 1431.117188 C 3423.191406 1429.136719 3424.472656 1432.730469 3420.875 1434.675781 C 3417.277344 1436.628906 3417.15625 1439 3417.15625 1441.195312 C 3417.15625 1443.386719 3421.789062 1442.746094 3422.125 1442.808594 C 3425.023438 1443.507812 3422.125 1442.808594 3425.84375 1445.121094 Z M 3408.589844 1415.371094 C 3410.082031 1424.265625 3411.363281 1425.90625 3410.785156 1427.429688 C 3410.207031 1428.953125 3409.046875 1431.601562 3412.796875 1434.007812 C 3416.546875 1436.414062 3420.722656 1431.570312 3422.582031 1429.136719 C 3424.441406 1426.699219 3421.882812 1425.421875 3420.265625 1424.324219 C 3418.648438 1423.230469 3416.667969 1415.828125 3415.875 1412.9375 C 3415.050781 1410.042969 3415.753906 1403.558594 3417.277344 1401.824219 C 3418.800781 1400.085938 3417.855469 1398.808594 3416.121094 1396.859375 C 3414.382812 1394.910156 3408.007812 1396.980469 3405.8125 1397.558594 C 3403.621094 1398.136719 3405.8125 1401.851562 3405.8125 1401.851562 C 3407.765625 1402.554688 3407.066406 1406.511719 3408.589844 1415.371094 Z M 3410.996094 1384.984375 C 3410.996094 1384.984375 3406.363281 1385.804688 3405.660156 1388.332031 C 3404.960938 1390.859375 3404.382812 1394.238281 3406.242188 1394.820312 C 3408.101562 1395.398438 3412.613281 1396.21875 3413.40625 1393.539062 C 3414.199219 1390.859375 3415.84375 1388.667969 3413.40625 1386.839844 C 3410.96875 1385.015625 3413.316406 1384.3125 3410.996094 1384.984375 Z M 3452.917969 1381.664062 C 3450.265625 1383.886719 3451.636719 1401.183594 3451.757812 1406.054688 C 3451.882812 1410.925781 3449.320312 1412.296875 3449.902344 1416.804688 C 3450.480469 1421.3125 3451.179688 1423.167969 3452.675781 1424.203125 C 3454.167969 1425.238281 3455.449219 1421.066406 3457.066406 1420.398438 C 3458.679688 1419.726562 3458.101562 1416.683594 3458.070312 1415.3125 C 3458.039062 1413.941406 3457.855469 1411.019531 3458.070312 1407.667969 C 3458.285156 1404.320312 3458.34375 1392.871094 3460.539062 1387.90625 C 3462.734375 1382.945312 3460.785156 1384.191406 3462.277344 1380.75 C 3463.773438 1377.28125 3461.121094 1374.507812 3457.1875 1374.355469 C 3453.253906 1374.203125 3453.589844 1379.808594 3453.589844 1379.808594 C 3453.589844 1379.808594 3455.601562 1379.441406 3452.917969 1381.664062 Z M 3451.820312 1373.261719 C 3452.1875 1373.898438 3454.5625 1372.195312 3457.429688 1372.40625 C 3460.234375 1372.589844 3462.125 1374.507812 3463.925781 1373.746094 C 3464.109375 1373.65625 3464.289062 1373.597656 3464.382812 1373.414062 C 3464.808594 1372.46875 3461.972656 1370.398438 3462.796875 1369.300781 C 3463.742188 1368.023438 3463.253906 1364.09375 3462.765625 1359.921875 C 3462.308594 1355.75 3462.886719 1357.03125 3462.765625 1353.4375 C 3462.644531 1349.84375 3455.695312 1352.28125 3453.832031 1352.613281 C 3451.941406 1352.949219 3453.164062 1362.785156 3453.164062 1365.464844 C 3453.164062 1368.144531 3453.039062 1370.09375 3451.882812 1372.742188 C 3451.757812 1373.015625 3451.757812 1373.140625 3451.820312 1373.261719 Z M 3447.828125 1424.296875 C 3450.480469 1423.960938 3446.789062 1414.460938 3446.425781 1410.988281 C 3446.058594 1407.515625 3446.789062 1383.460938 3446.425781 1379.289062 C 3446.058594 1375.117188 3439.382812 1373.746094 3437.980469 1373.382812 C 3436.605469 1373.046875 3436.699219 1372.925781 3433.679688 1378.253906 C 3430.660156 1383.582031 3438.558594 1399.050781 3439.6875 1403.558594 C 3440.84375 1408.066406 3438.863281 1416.988281 3438.621094 1421.25 C 3438.34375 1425.542969 3442.917969 1425.117188 3442.917969 1425.117188 C 3444.808594 1422.800781 3445.175781 1424.660156 3447.828125 1424.296875 Z M 3439.808594 1371.523438 C 3442.429688 1372.011719 3443.527344 1373.320312 3445.417969 1372.957031 C 3447.855469 1372.5 3445.296875 1369.605469 3444.59375 1366.835938 C 3443.894531 1364.066406 3444.261719 1354.351562 3442.398438 1352.160156 C 3440.570312 1349.964844 3436.820312 1350.089844 3433.222656 1352.613281 C 3429.625 1355.140625 3435.570312 1366.257812 3432.429688 1369.273438 C 3431.121094 1370.519531 3430.785156 1371.585938 3430.90625 1372.46875 C 3431.089844 1373.71875 3432.21875 1374.996094 3433.132812 1374.875 C 3434.167969 1374.753906 3434.015625 1372.957031 3435.570312 1371.949219 C 3436.941406 1370.976562 3438.742188 1371.339844 3439.808594 1371.523438 Z M 3421.882812 1403.375 C 3421.882812 1405.691406 3424.898438 1420.609375 3424.808594 1424.417969 C 3424.71875 1428.222656 3425.601562 1428.132812 3427.796875 1429.746094 C 3429.992188 1431.359375 3431.027344 1429.746094 3432.886719 1427.675781 C 3434.746094 1425.601562 3437.765625 1426.183594 3437.859375 1424.324219 C 3437.980469 1422.46875 3434.136719 1417.382812 3432.765625 1414.15625 C 3431.363281 1410.925781 3427.675781 1393.8125 3427.886719 1389.765625 C 3428.132812 1385.714844 3426.273438 1379.714844 3425.570312 1376 C 3424.871094 1372.285156 3419.078125 1375.542969 3414.351562 1378.316406 C 3409.625 1381.085938 3417.003906 1388.363281 3417.003906 1388.363281 C 3417.003906 1388.363281 3421.882812 1401.0625 3421.882812 1403.375 Z M 3466.484375 1403.832031 C 3466.820312 1408.796875 3463.253906 1410.316406 3460.355469 1414.703125 C 3457.460938 1419.085938 3460.113281 1421.644531 3462.796875 1421.765625 C 3465.480469 1421.890625 3466.851562 1424.539062 3468.40625 1425.117188 C 3469.960938 1425.695312 3471.820312 1421.3125 3471.027344 1417.597656 C 3470.207031 1413.878906 3472.523438 1407.761719 3472.09375 1403.375 C 3471.667969 1398.992188 3475.632812 1391.925781 3477.066406 1388.699219 C 3478.496094 1385.472656 3476.546875 1383.613281 3475.9375 1381.175781 C 3475.328125 1378.742188 3469.382812 1380.019531 3467.644531 1380.71875 C 3465.90625 1381.421875 3466.820312 1385.015625 3466.820312 1385.015625 C 3468.4375 1385.441406 3466.121094 1398.871094 3466.484375 1403.832031 Z M 3473.191406 1369.730469 C 3471.914062 1374.933594 3471.578125 1370.640625 3468.894531 1374.234375 C 3466.210938 1377.828125 3474.320312 1378.40625 3477.035156 1378.285156 C 3479.75 1378.164062 3477.003906 1374.8125 3478.621094 1374.875 C 3480.238281 1374.90625 3480.023438 1370.09375 3480.023438 1367.203125 C 3480.023438 1364.308594 3481.179688 1357.824219 3482.917969 1355.417969 C 3484.65625 1352.980469 3482.09375 1352.523438 3480.359375 1352.644531 C 3478.621094 1352.765625 3477.339844 1351.15625 3475.84375 1351.246094 C 3474.351562 1351.367188 3475.84375 1355.417969 3475.84375 1355.417969 C 3476.882812 1356.757812 3474.472656 1364.519531 3473.191406 1369.730469 Z M 3477.886719 1344.273438 C 3475.175781 1349.144531 3479.808594 1350.851562 3482.707031 1350.636719 C 3485.601562 1350.394531 3484.441406 1346.25 3483.527344 1343.359375 C 3482.613281 1340.464844 3483.40625 1336.996094 3484.929688 1332.246094 C 3486.425781 1327.492188 3484.351562 1327.492188 3482.492188 1329.015625 C 3480.632812 1330.539062 3481.578125 1329.261719 3479.472656 1329.71875 C 3477.402344 1330.171875 3478.894531 1335.503906 3478.894531 1335.503906 C 3478.894531 1335.503906 3480.601562 1339.429688 3477.886719 1344.273438 Z M 3484.65625 1326.367188 C 3487.097656 1325.546875 3483.253906 1319.882812 3483.621094 1318.632812 C 3483.957031 1317.355469 3483.742188 1316.441406 3483.621094 1312.726562 C 3483.5 1309.011719 3480.023438 1310.535156 3478.34375 1312.726562 C 3476.667969 1314.917969 3480.144531 1319.304688 3478.742188 1323.019531 C 3477.339844 1326.734375 3480.023438 1327.769531 3480.023438 1327.769531 C 3481.609375 1329.6875 3482.21875 1327.160156 3484.65625 1326.367188 Z M 3406.578125 1348.898438 C 3407.21875 1351.671875 3408.34375 1357.578125 3408.921875 1360.351562 C 3409.503906 1363.121094 3410.207031 1367.171875 3410.082031 1371.796875 C 3409.960938 1376.429688 3413.316406 1374.933594 3415.507812 1372.957031 C 3417.703125 1370.976562 3422.09375 1372.378906 3424.199219 1371.464844 C 3426.273438 1370.550781 3422.582031 1364.976562 3419.230469 1362.574219 C 3415.875 1360.136719 3416.089844 1352.738281 3414.839844 1350.210938 C 3413.558594 1347.652344 3413.46875 1344.425781 3414.59375 1342.6875 C 3415.753906 1340.953125 3412.277344 1339.917969 3409.625 1341.410156 C 3406.972656 1342.902344 3406.972656 1341.867188 3404.746094 1342.808594 C 3402.519531 1343.753906 3405.570312 1345.582031 3405.570312 1345.582031 C 3405.570312 1345.582031 3405.90625 1346.128906 3406.578125 1348.898438 Z M 3399.136719 1323.230469 C 3399.410156 1323.777344 3400.539062 1323.535156 3400.753906 1324.113281 C 3400.875 1324.417969 3400.660156 1324.753906 3400.570312 1324.9375 C 3400.019531 1326.125 3401.273438 1327.796875 3401.972656 1329.015625 C 3402.1875 1329.382812 3404.441406 1332.914062 3403.710938 1336.539062 C 3403.132812 1339.429688 3403.375 1340.34375 3405.90625 1340.34375 C 3408.4375 1340.34375 3410.417969 1338.488281 3412.980469 1338.488281 C 3415.539062 1338.488281 3413.101562 1334.316406 3410.328125 1331.910156 C 3408.527344 1330.324219 3407.613281 1324.417969 3407.308594 1323.351562 C 3407.21875 1323.046875 3407.09375 1322.5 3406.667969 1322.257812 C 3406.515625 1322.164062 3406.363281 1322.136719 3406.269531 1322.011719 C 3406.242188 1321.953125 3406.179688 1321.769531 3406.425781 1321.160156 C 3406.667969 1320.613281 3406.820312 1320.550781 3406.757812 1320.460938 C 3406.578125 1320.09375 3405.234375 1320.339844 3403.007812 1321.160156 C 3399.867188 1322.316406 3399.535156 1321.984375 3399.535156 1321.984375 C 3399.046875 1322.621094 3399.015625 1323.019531 3399.136719 1323.230469 Z M 3399.078125 1319.179688 C 3399.078125 1319.179688 3396.757812 1318.847656 3398.621094 1316.746094 C 3400.480469 1314.644531 3395.84375 1309.46875 3396.300781 1306.910156 C 3396.757812 1304.351562 3400.691406 1301.488281 3401.394531 1303.5625 C 3402.09375 1305.628906 3403.253906 1314.886719 3405.785156 1316.289062 C 3408.3125 1317.6875 3402.550781 1320.460938 3399.078125 1319.179688 " fill-opacity="1" fill-rule="nonzero"/></g><path fill="#d9d9d9" d="M 3412.0625 1412.964844 C 3412.214844 1415.371094 3412.734375 1417.777344 3413.070312 1420.152344 C 3413.253906 1421.523438 3413.496094 1422.894531 3413.46875 1424.265625 C 3413.4375 1425.328125 3413.316406 1426.304688 3413.710938 1427.339844 C 3413.863281 1427.734375 3414.472656 1427.554688 3414.320312 1427.15625 C 3413.925781 1425.90625 3414.136719 1424.75 3414.078125 1423.472656 C 3414.015625 1422.40625 3413.800781 1421.339844 3413.621094 1420.273438 C 3413.191406 1417.839844 3412.949219 1415.3125 3412.339844 1412.90625 C 3412.308594 1412.785156 3412.0625 1412.8125 3412.0625 1412.964844 Z M 3408.648438 1398.382812 C 3407.980469 1399.355469 3408.132812 1400.480469 3408.496094 1401.578125 C 3409.105469 1403.464844 3409.898438 1404.960938 3409.960938 1407.027344 C 3409.992188 1408.824219 3409.871094 1410.59375 3410.082031 1412.359375 C 3410.296875 1414.125 3410.691406 1415.828125 3411.089844 1417.535156 C 3411.546875 1419.453125 3412.035156 1421.371094 3412.246094 1423.351562 C 3412.429688 1424.996094 3412.214844 1426.640625 3412.398438 1428.253906 C 3412.644531 1430.234375 3414.503906 1432.730469 3416.699219 1431.390625 C 3417.125 1431.144531 3416.761719 1430.539062 3416.304688 1430.71875 C 3413.894531 1431.875 3413.070312 1428.769531 3413.039062 1427.097656 C 3413.011719 1425.632812 3413.039062 1424.234375 3412.828125 1422.800781 C 3412.460938 1420.152344 3411.636719 1417.566406 3411.089844 1414.945312 C 3410.785156 1413.453125 3410.539062 1411.960938 3410.511719 1410.441406 C 3410.480469 1409.039062 3410.632812 1407.636719 3410.539062 1406.207031 C 3410.359375 1403.648438 3408.132812 1401.0625 3409.074219 1398.566406 C 3409.230469 1398.320312 3408.800781 1398.167969 3408.648438 1398.382812 Z M 3428.496094 1439.640625 C 3427.0625 1438.757812 3424.929688 1439.03125 3424.289062 1437.207031 C 3424.199219 1436.933594 3423.742188 1436.960938 3423.742188 1437.265625 C 3423.773438 1439.488281 3426.972656 1439.246094 3428.34375 1439.914062 C 3428.527344 1439.976562 3428.679688 1439.734375 3428.496094 1439.640625 Z M 3469.261719 1430.933594 C 3468.621094 1431.542969 3467.828125 1432.515625 3467.765625 1433.429688 C 3467.734375 1433.671875 3468.070312 1433.734375 3468.195312 1433.550781 C 3468.4375 1433.1875 3468.558594 1432.699219 3468.773438 1432.300781 C 3468.984375 1431.90625 3469.261719 1431.511719 3469.535156 1431.144531 C 3469.6875 1430.992188 3469.414062 1430.8125 3469.261719 1430.933594 Z M 3468.042969 1437.632812 C 3468.984375 1437.90625 3469.535156 1437.144531 3469.746094 1436.292969 C 3469.929688 1435.53125 3469.898438 1434.738281 3470.175781 1434.007812 C 3470.601562 1432.789062 3471.304688 1432.089844 3472.371094 1431.359375 C 3472.644531 1431.175781 3472.398438 1430.71875 3472.09375 1430.902344 C 3471.210938 1431.449219 3470.511719 1432.210938 3470.082031 1433.15625 C 3469.65625 1434.070312 3469.59375 1437.570312 3468.101562 1437.417969 C 3467.949219 1437.359375 3467.917969 1437.570312 3468.042969 1437.632812 Z M 3427.734375 1443.355469 C 3427.0625 1442.289062 3426.148438 1441.621094 3424.960938 1441.195312 C 3424.289062 1440.980469 3423.832031 1440.949219 3423.191406 1440.464844 C 3423.011719 1440.3125 3422.859375 1440.097656 3422.644531 1439.976562 C 3422.492188 1439.886719 3422.246094 1439.855469 3422.09375 1439.761719 C 3420.84375 1439.03125 3421.179688 1438.148438 3421.699219 1437.296875 C 3421.882812 1437.023438 3421.453125 1436.6875 3421.242188 1436.933594 C 3420.355469 1437.9375 3419.898438 1439.582031 3421.363281 1440.25 C 3421.914062 1440.492188 3422.402344 1440.644531 3422.886719 1440.980469 C 3423.164062 1441.164062 3423.40625 1441.316406 3423.742188 1441.40625 C 3424.320312 1441.589844 3424.929688 1441.621094 3425.511719 1441.832031 C 3426.332031 1442.167969 3426.972656 1442.71875 3427.492188 1443.417969 C 3427.613281 1443.570312 3427.828125 1443.476562 3427.734375 1443.355469 Z M 3445.234375 1453.191406 C 3443.5 1451.609375 3440.96875 1451.941406 3439.136719 1450.574219 C 3438.191406 1449.871094 3437.402344 1449.019531 3436.300781 1448.5625 C 3435.480469 1448.226562 3432.550781 1448.289062 3432.277344 1447.527344 C 3432.15625 1447.253906 3431.699219 1447.253906 3431.730469 1447.589844 C 3431.761719 1448.378906 3432.246094 1448.746094 3433.039062 1448.835938 C 3433.773438 1448.929688 3434.472656 1448.746094 3435.234375 1448.929688 C 3436.210938 1449.140625 3437.003906 1449.660156 3437.765625 1450.269531 C 3438.679688 1451 3439.535156 1451.699219 3440.691406 1452.003906 C 3442.214844 1452.429688 3443.863281 1452.277344 3445.175781 1453.28125 C 3445.203125 1453.375 3445.328125 1453.253906 3445.234375 1453.191406 Z M 3462.886719 1448.625 C 3463.316406 1448.835938 3461.546875 1450.421875 3461.457031 1450.480469 C 3460.84375 1450.816406 3460.265625 1450.875 3459.59375 1450.9375 C 3458.375 1451.027344 3457.125 1451.667969 3455.9375 1451.210938 C 3454.503906 1450.695312 3453.316406 1449.292969 3451.667969 1449.570312 C 3451.363281 1449.597656 3451.484375 1450.023438 3451.730469 1450.054688 C 3453.191406 1450.207031 3454.136719 1451.058594 3455.417969 1451.609375 C 3456.941406 1452.277344 3457.796875 1451.484375 3459.351562 1451.332031 C 3460.449219 1451.242188 3461.273438 1451.121094 3462.1875 1450.449219 C 3462.734375 1450.023438 3463.679688 1449.203125 3463.375 1448.441406 C 3463.34375 1448.351562 3463.253906 1448.257812 3463.132812 1448.257812 C 3463.070312 1448.257812 3463.039062 1448.257812 3462.980469 1448.257812 C 3462.796875 1448.257812 3462.675781 1448.53125 3462.886719 1448.625 Z M 3481.363281 1312.328125 C 3482.707031 1314.675781 3480.785156 1316.804688 3481.242188 1319.210938 C 3481.609375 1321.25 3483.011719 1322.925781 3483.285156 1325.027344 C 3483.347656 1325.363281 3483.894531 1325.269531 3483.863281 1324.9375 C 3483.773438 1322.53125 3481.699219 1320.671875 3481.667969 1318.265625 C 3481.667969 1316.320312 3483.46875 1313.730469 3481.636719 1312.085938 C 3481.484375 1311.964844 3481.242188 1312.148438 3481.363281 1312.328125 Z M 3398.621094 1304.867188 C 3399.714844 1305.875 3399.808594 1308.371094 3400.082031 1309.773438 C 3400.386719 1311.355469 3400.660156 1312.96875 3401.058594 1314.523438 C 3401.148438 1314.917969 3401.757812 1314.765625 3401.667969 1314.339844 C 3401.242188 1312.269531 3400.632812 1310.230469 3400.171875 1308.15625 C 3399.898438 1306.941406 3399.898438 1305.355469 3398.832031 1304.59375 C 3398.679688 1304.472656 3398.46875 1304.746094 3398.621094 1304.867188 Z M 3483.957031 1330.234375 C 3482.644531 1332.761719 3482.125 1335.320312 3481.914062 1338.152344 C 3481.667969 1341.441406 3481.394531 1344.699219 3481.210938 1347.988281 C 3481.179688 1348.382812 3481.789062 1348.382812 3481.820312 1347.988281 C 3482.1875 1342.203125 3481.546875 1335.714844 3484.199219 1330.386719 C 3484.320312 1330.203125 3484.046875 1330.050781 3483.957031 1330.234375 Z M 3403.648438 1321.222656 C 3403.773438 1321.953125 3403.648438 1322.714844 3403.953125 1323.382812 C 3404.414062 1324.449219 3405.144531 1325.027344 3405.265625 1326.277344 C 3405.417969 1327.796875 3405.175781 1329.320312 3405.507812 1330.84375 C 3406.117188 1333.644531 3407.855469 1336.234375 3410.296875 1337.785156 C 3410.632812 1338 3410.90625 1337.480469 3410.601562 1337.269531 C 3407.886719 1335.289062 3406.058594 1332.398438 3405.875 1328.988281 C 3405.8125 1327.675781 3406.027344 1326.308594 3405.570312 1325.058594 C 3405.386719 1324.539062 3405.023438 1324.144531 3404.746094 1323.65625 C 3404.289062 1322.867188 3404.382812 1321.953125 3404.078125 1321.128906 C 3403.984375 1320.824219 3403.621094 1320.945312 3403.648438 1321.222656 Z M 3480.753906 1356.027344 C 3478.621094 1358.371094 3478.773438 1362.054688 3478.589844 1365.007812 C 3478.4375 1367.050781 3478.164062 1368.996094 3477.1875 1370.824219 C 3476.792969 1371.554688 3476.332031 1372.226562 3476.027344 1372.988281 C 3475.816406 1373.566406 3475.785156 1375.667969 3475.144531 1375.726562 C 3474.777344 1375.757812 3474.777344 1376.277344 3475.144531 1376.304688 C 3475.632812 1376.335938 3475.875 1376.214844 3476.148438 1375.820312 C 3476.332031 1375.542969 3476.304688 1375.332031 3476.332031 1374.964844 C 3476.394531 1374.171875 3476.394531 1373.535156 3476.730469 1372.773438 C 3477.523438 1371.066406 3478.4375 1369.699219 3478.800781 1367.808594 C 3479.136719 1366.042969 3479.136719 1364.246094 3479.261719 1362.449219 C 3479.414062 1360.136719 3479.902344 1358.25 3480.96875 1356.179688 C 3481.027344 1356.054688 3480.847656 1355.902344 3480.753906 1356.027344 Z M 3410.785156 1343.785156 C 3411.515625 1345.09375 3411.179688 1346.464844 3411.027344 1347.867188 C 3410.90625 1349.113281 3410.84375 1350.394531 3410.9375 1351.671875 C 3411.089844 1353.863281 3411.730469 1355.933594 3412.582031 1357.945312 C 3413.496094 1360.046875 3414.535156 1362.390625 3415.96875 1364.1875 C 3417.308594 1365.890625 3419.261719 1367.019531 3420.113281 1369.089844 C 3420.265625 1369.484375 3420.9375 1369.300781 3420.753906 1368.90625 C 3420.050781 1367.171875 3418.679688 1366.074219 3417.371094 1364.765625 C 3415.570312 1362.9375 3414.441406 1360.410156 3413.375 1358.125 C 3412.125 1355.445312 3411.425781 1352.738281 3411.453125 1349.785156 C 3411.484375 1347.804688 3412.339844 1345.367188 3411.089844 1343.601562 C 3410.96875 1343.417969 3410.664062 1343.570312 3410.785156 1343.785156 Z M 3423.4375 1397.957031 C 3423.953125 1401.914062 3424.257812 1406.359375 3425.722656 1410.074219 C 3425.816406 1410.316406 3426.300781 1410.316406 3426.242188 1410.011719 C 3425.996094 1408.066406 3425.359375 1406.144531 3424.929688 1404.226562 C 3424.441406 1402.128906 3424.078125 1400.023438 3423.742188 1397.894531 C 3423.710938 1397.742188 3423.40625 1397.804688 3423.4375 1397.957031 Z M 3420.234375 1377.371094 C 3421.972656 1376.578125 3423.496094 1378.070312 3423.863281 1379.6875 C 3424.136719 1380.902344 3423.863281 1382.183594 3423.710938 1383.371094 C 3423.4375 1385.5 3423.4375 1387.570312 3423.710938 1389.703125 C 3424.230469 1393.722656 3425.511719 1397.589844 3426.605469 1401.488281 C 3427.15625 1403.464844 3427.703125 1405.476562 3428.070312 1407.515625 C 3428.4375 1409.554688 3428.558594 1411.597656 3428.953125 1413.636719 C 3429.289062 1415.464844 3429.867188 1417.292969 3430.9375 1418.84375 C 3432.066406 1420.488281 3433.527344 1421.796875 3434.535156 1423.535156 C 3434.777344 1423.960938 3435.417969 1423.59375 3435.203125 1423.136719 C 3434.136719 1421.066406 3432.21875 1419.636719 3431.058594 1417.625 C 3429.839844 1415.464844 3429.535156 1412.9375 3429.230469 1410.53125 C 3428.648438 1405.964844 3427.339844 1401.609375 3426.089844 1397.195312 C 3424.71875 1392.445312 3423.863281 1387.816406 3424.289062 1382.882812 C 3424.410156 1381.269531 3424.59375 1379.320312 3423.40625 1378.011719 C 3422.523438 1377.035156 3421.269531 1376.488281 3420.050781 1377.035156 C 3419.746094 1377.097656 3419.960938 1377.492188 3420.234375 1377.371094 Z M 3470.359375 1393.996094 C 3470.144531 1395.125 3469.746094 1396.371094 3469.777344 1397.558594 C 3469.777344 1397.742188 3470.023438 1397.773438 3470.082031 1397.589844 C 3470.449219 1396.492188 3470.480469 1395.183594 3470.601562 1394.027344 C 3470.601562 1393.90625 3470.386719 1393.875 3470.359375 1393.996094 Z M 3472.066406 1383.21875 C 3473.621094 1383.097656 3474.292969 1384.832031 3473.957031 1386.109375 C 3473.742188 1386.992188 3473.191406 1387.753906 3472.855469 1388.546875 C 3472.277344 1389.886719 3472.246094 1391.195312 3472.246094 1392.628906 C 3472.246094 1396.21875 3470.265625 1398.929688 3469.414062 1402.25 C 3467.734375 1408.613281 3471.304688 1415.585938 3468.132812 1421.644531 C 3467.949219 1421.980469 3468.46875 1422.316406 3468.652344 1421.949219 C 3470.386719 1418.660156 3470.175781 1415.007812 3469.839844 1411.414062 C 3469.65625 1409.433594 3469.441406 1407.457031 3469.535156 1405.445312 C 3469.625 1403.132812 3470.328125 1401.089844 3471.210938 1398.992188 C 3471.882812 1397.4375 3472.523438 1395.886719 3472.675781 1394.179688 C 3472.765625 1393.144531 3472.613281 1392.078125 3472.675781 1391.042969 C 3472.734375 1389.703125 3473.222656 1388.699219 3473.804688 1387.511719 C 3474.320312 1386.414062 3474.75 1385.289062 3474.199219 1384.128906 C 3473.773438 1383.25 3473.011719 1382.640625 3472.035156 1382.972656 C 3471.914062 1383.035156 3471.914062 1383.21875 3472.066406 1383.21875 Z M 3458.742188 1357.425781 C 3458.679688 1360.046875 3458.222656 1363 3458.679688 1365.585938 C 3458.710938 1365.769531 3459.015625 1365.769531 3459.046875 1365.585938 C 3459.503906 1363 3459.046875 1360.046875 3458.984375 1357.425781 C 3458.984375 1357.246094 3458.742188 1357.246094 3458.742188 1357.425781 Z M 3439.257812 1356.542969 C 3439.015625 1359.464844 3438.894531 1362.601562 3439.136719 1365.527344 C 3439.167969 1365.921875 3439.746094 1365.921875 3439.746094 1365.527344 C 3439.6875 1362.542969 3439.503906 1359.527344 3439.441406 1356.542969 C 3439.472656 1356.421875 3439.257812 1356.421875 3439.257812 1356.542969 Z M 3437.796875 1352.28125 C 3442.613281 1351.703125 3440.511719 1359.101562 3440.816406 1361.71875 C 3441.148438 1364.550781 3442.0625 1367.597656 3443.375 1370.125 C 3443.527344 1370.429688 3444.015625 1370.214844 3443.925781 1369.882812 C 3443.375 1367.902344 3442.429688 1366.074219 3441.941406 1364.066406 C 3441.332031 1361.71875 3441.394531 1359.558594 3441.546875 1357.183594 C 3441.699219 1355.050781 3440.785156 1351.15625 3437.734375 1352.035156 C 3437.644531 1352.097656 3437.644531 1352.308594 3437.796875 1352.28125 Z M 3458.558594 1353.285156 C 3461.058594 1353.558594 3460.265625 1357.730469 3460.265625 1359.34375 C 3460.265625 1360.714844 3460.296875 1362.085938 3460.386719 1363.457031 C 3460.539062 1366.226562 3460.84375 1368.96875 3461.273438 1371.707031 C 3461.332031 1372.164062 3462.035156 1371.949219 3461.945312 1371.523438 C 3461.304688 1367.476562 3460.875 1363.457031 3460.722656 1359.375 C 3460.660156 1357.578125 3461.457031 1352.980469 3458.558594 1352.949219 C 3458.316406 1352.917969 3458.316406 1353.253906 3458.558594 1353.285156 Z M 3458.742188 1375.878906 C 3462.828125 1377.765625 3459.992188 1382.730469 3458.832031 1385.53125 C 3457.429688 1388.972656 3456.699219 1392.6875 3456.179688 1396.371094 C 3455.113281 1403.679688 3455.050781 1411.050781 3455.816406 1418.386719 C 3455.847656 1418.84375 3456.578125 1418.84375 3456.515625 1418.386719 C 3455.570312 1409.984375 3455.816406 1401.394531 3457.339844 1393.113281 C 3457.703125 1391.132812 3458.164062 1389.1875 3458.804688 1387.296875 C 3459.414062 1385.5 3460.296875 1383.796875 3460.84375 1381.96875 C 3461.546875 1379.65625 3461.394531 1376.730469 3458.984375 1375.515625 C 3458.710938 1375.363281 3458.46875 1375.757812 3458.742188 1375.878906 Z M 3439.320312 1377.765625 C 3439.105469 1377.765625 3439.105469 1377.433594 3439.320312 1377.433594 C 3441.941406 1377.308594 3443.621094 1379.65625 3443.957031 1382.058594 C 3444.230469 1384.039062 3443.773438 1386.050781 3443.589844 1388.027344 C 3443.375 1390.191406 3443.316406 1392.324219 3443.316406 1394.484375 C 3443.375 1403.375 3445.113281 1412.023438 3446.636719 1420.761719 C 3446.730469 1421.1875 3446.058594 1421.402344 3445.96875 1420.945312 C 3444.503906 1413.605469 3443.253906 1406.085938 3442.855469 1398.59375 C 3442.644531 1394.757812 3442.734375 1390.953125 3443.191406 1387.144531 C 3443.589844 1383.976562 3444.289062 1377.644531 3439.320312 1377.765625 " fill-opacity="1" fill-rule="nonzero"/><g clip-path="url(#85e0591f48)"><path fill="#d9d9d9" d="M 3423.871094 1426.613281 L 3451.207031 1426.613281 L 3451.207031 1455.136719 L 3423.871094 1455.136719 Z M 3423.871094 1426.613281 " fill-opacity="1" fill-rule="nonzero"/></g><g clip-path="url(#733414cd50)"><path fill="#d9d9d9" d="M 3429.824219 1391.9375 L 3457.160156 1391.9375 L 3457.160156 1426.40625 L 3429.824219 1426.40625 Z M 3429.824219 1391.9375 " fill-opacity="1" fill-rule="nonzero"/></g><path stroke-linecap="butt" transform="matrix(0.403411, 0, 0, 0.403411, 3398.038917, 1359.896414)" fill="none" stroke-linejoin="miter" d="M 74.811549 226.113744 L 100.355415 200.57956 L 101.449599 151.525266 L 85.588775 129.593175 L 42.54765 126.697945 L 45.007143 97.765014 L 60.480645 98.694586 L 62.949821 115.484982 L 96.52093 116.579166 L 97.237475 83.656821 L 79.08177 63.312748 L 29.582056 61.511702 L 5.142057 86.339023 L 4.48361 137.194363 L 25.534545 162.951257 L 61.797539 162.951257 L 61.797539 190.073459 L 44.571406 187.400939 L 42.32494 171.917754 L 7.37884 173.292746 L 5.800504 202.167579 L 28.652484 225.900717 Z M 74.811549 226.113744 " stroke="#d9d9d9" stroke-width="21.559999" stroke-opacity="1" stroke-miterlimit="4"/><g fill="#000000" fill-opacity="1"><g transform="translate(3398.038917, 1449.857161)"><g><path d="M 30.179688 1.265625 L 40.484375 -9.035156 L 40.933594 -28.824219 L 34.519531 -37.683594 L 17.167969 -38.855469 L 18.164062 -50.511719 L 24.398438 -50.152344 L 25.390625 -43.375 L 38.945312 -42.921875 L 39.21875 -56.207031 L 31.898438 -64.429688 L 11.929688 -65.152344 L 2.078125 -55.121094 L 1.808594 -34.609375 L 10.300781 -24.21875 L 24.941406 -24.21875 L 24.941406 -13.285156 L 17.984375 -14.367188 L 17.078125 -20.601562 L 2.980469 -20.0625 L 2.347656 -8.402344 L 11.566406 1.175781 Z M 30.179688 1.265625 "/></g></g></g><path stroke-linecap="butt" transform="matrix(0.403411, 0, 0, 0.403411, 3443.466187, 1359.896414)" fill="none" stroke-linejoin="miter" d="M 52.66274 225.678007 L 50.638984 158.032271 L 67.20667 158.245298 L 66.277098 224.089988 L 111.341978 220.323284 L 105.706447 57.899927 L 64.31144 60.35942 L 69.675846 122.427723 L 48.837938 123.30888 L 49.709412 61.724729 L 10.996607 59.042526 L 8.972851 222.560067 Z M 52.66274 225.678007 " stroke="#d9d9d9" stroke-width="21.559999" stroke-opacity="1" stroke-miterlimit="4"/><g fill="#000000" fill-opacity="1"><g transform="translate(3443.466187, 1449.857161)"><g><path d="M 21.234375 1.085938 L 20.421875 -26.207031 L 27.109375 -26.117188 L 26.746094 0.453125 L 44.910156 -1.085938 L 42.652344 -66.597656 L 25.933594 -65.605469 L 28.101562 -40.574219 L 19.699219 -40.210938 L 20.0625 -65.0625 L 4.429688 -66.148438 L 3.613281 -0.179688 Z M 21.234375 1.085938 "/></g></g></g><path stroke-linecap="butt" transform="matrix(0.403411, 0, 0, 0.403411, 3490.435865, 1359.896414)" fill="none" stroke-linejoin="miter" d="M 8.970551 226.113744 L 47.247619 221.90162 L 49.707112 187.613966 L 64.967587 188.495123 L 66.061771 224.370796 L 108.880185 224.089988 L 101.714734 86.116313 L 89.581881 60.58213 L 39.433403 61.288992 L 11.865781 95.528231 Z M 67.862817 152.454839 L 48.399901 151.525266 L 50.423657 94.434047 L 67.214053 95.528231 Z M 67.862817 152.454839 " stroke="#d9d9d9" stroke-width="21.559999" stroke-opacity="1" stroke-miterlimit="4"/><g fill="#000000" fill-opacity="1"><g transform="translate(3490.435865, 1449.857161)"><g><path d="M 3.613281 1.265625 L 19.066406 -0.453125 L 20.0625 -14.277344 L 26.207031 -13.917969 L 26.65625 0.542969 L 43.917969 0.453125 L 41.023438 -55.210938 L 36.144531 -65.515625 L 15.902344 -65.242188 L 4.789062 -51.417969 Z M 27.378906 -28.464844 L 19.519531 -28.824219 L 20.332031 -51.867188 L 27.109375 -51.417969 Z M 27.378906 -28.464844 "/></g></g></g><g clip-path="url(#a13f4018e0)"><path fill="#d9d9d9" d="M 3552.570312 1404.300781 L 3579.90625 1404.300781 L 3579.90625 1432.824219 L 3552.570312 1432.824219 Z M 3552.570312 1404.300781 " fill-opacity="1" fill-rule="nonzero"/></g><path stroke-linecap="butt" transform="matrix(0.403411, 0, 0, 0.403411, 3534.576639, 1359.896414)" fill="none" stroke-linejoin="miter" d="M 34.949785 224.089988 L 88.051591 222.995804 L 103.466995 196.590147 L 103.466995 163.667802 L 69.237439 165.197723 L 63.601909 188.93086 L 48.612559 187.836676 L 49.706742 99.353033 L 67.213683 98.694586 L 69.237439 125.109926 L 107.737217 121.769276 L 106.643033 88.575806 L 92.970577 63.971195 L 25.973605 63.971195 L 10.993938 89.292351 L 8.970182 202.816343 Z M 34.949785 224.089988 " stroke="#d9d9d9" stroke-width="21.559999" stroke-opacity="1" stroke-miterlimit="4"/><g fill="#000000" fill-opacity="1"><g transform="translate(3534.576639, 1449.857161)"><g><path d="M 14.097656 0.453125 L 35.511719 0 L 41.75 -10.664062 L 41.75 -23.945312 L 27.921875 -23.3125 L 25.664062 -13.734375 L 19.609375 -14.1875 L 20.0625 -49.882812 L 27.109375 -50.152344 L 27.921875 -39.488281 L 43.464844 -40.84375 L 43.011719 -54.21875 L 37.5 -64.160156 L 10.480469 -64.160156 L 4.429688 -53.949219 L 3.613281 -8.132812 Z M 14.097656 0.453125 "/></g></g></g><path stroke-linecap="butt" transform="matrix(0.403411, 0, 0, 0.403411, 3575.105461, 1359.896414)" fill="none" stroke-linejoin="miter" d="M 50.206596 224.806533 L 48.618577 157.373824 L 57.585074 157.596534 L 63.385217 162.079783 L 72.351714 222.995804 L 111.781064 219.664838 L 100.790811 149.278801 L 78.422982 126.910972 L 113.58211 66.207978 L 74.37547 62.160466 L 48.395867 107.883793 L 47.030558 62.605886 L 12.307167 61.511702 L 8.966517 223.654251 Z M 50.206596 224.806533 " stroke="#d9d9d9" stroke-width="21.559999" stroke-opacity="1" stroke-miterlimit="4"/><g fill="#000000" fill-opacity="1"><g transform="translate(3575.105461, 1449.857161)"><g><path d="M 20.242188 0.722656 L 19.609375 -26.476562 L 23.222656 -26.386719 L 25.574219 -24.578125 L 29.1875 0 L 45.089844 -1.355469 L 40.664062 -29.730469 L 31.628906 -38.765625 L 45.816406 -63.253906 L 30 -64.882812 L 19.519531 -46.445312 L 18.976562 -64.699219 L 4.96875 -65.152344 L 3.613281 0.269531 Z M 20.242188 0.722656 "/></g></g></g><g clip-path="url(#20d3ca26e5)"><path fill="#494949" d="M 640.882812 875.417969 C 630.90625 871.613281 609.507812 909.640625 608.542969 911.535156 C 600 926.277344 564.796875 988.535156 592.382812 1034.179688 C 601.894531 1049.867188 619.484375 1065.074219 630.425781 1061.269531 C 633.75 1059.839844 638.988281 1055.570312 643.261719 1001.851562 C 645.171875 975.707031 644.207031 973.328125 645.171875 920.578125 C 645.171875 887.300781 645.636719 876.828125 640.882812 875.417969 Z M 684.628906 1387.832031 C 678.925781 1342.671875 648.964844 1250.925781 638.988281 1245.226562 C 628.996094 1240.007812 627.101562 1321.28125 648.015625 1346.480469 C 668.949219 1371.675781 658.007812 1377.375 672.273438 1471.015625 C 686.539062 1564.65625 736.9375 1552.308594 736.9375 1552.308594 C 751.203125 1552.308594 690.347656 1432.988281 684.628906 1387.832031 Z M 929.058594 1731.03125 C 948.082031 1723.898438 944.273438 1530.917969 944.273438 1530.917969 C 944.273438 1530.917969 940.949219 1423.964844 933.332031 1411.597656 C 925.734375 1398.769531 913.847656 1438.691406 913.847656 1438.691406 C 913.847656 1438.691406 910.039062 1738.160156 929.058594 1731.03125 Z M 924.769531 1141.613281 C 924.769531 1141.613281 910.039062 1136.859375 906.230469 1169.652344 C 902.421875 1201.980469 917.636719 1284.199219 915.257812 1304.644531 C 913.363281 1325.089844 914.792969 1387.832031 914.792969 1387.832031 C 914.792969 1387.832031 926.683594 1411.597656 940.464844 1337.453125 C 954.265625 1263.292969 997.527344 1256.644531 975.183594 1203.875 C 953.300781 1151.585938 949.027344 1141.132812 924.769531 1141.613281 Z M 971.859375 1012.304688 C 973.753906 978.082031 973.289062 927.707031 971.859375 883.496094 C 970.425781 839.285156 964.242188 894.898438 951.890625 947.667969 C 939.035156 999.957031 917.636719 990.914062 897.667969 1039.878906 C 877.699219 1088.84375 941.414062 1114.039062 941.414062 1114.039062 C 962.347656 1125.441406 969.480469 1046.542969 971.859375 1012.304688 Z M 1020.359375 2222.070312 C 1038.433594 2223.984375 1042.238281 2194.980469 1036.054688 2176.910156 C 1029.867188 2158.84375 991.828125 2117.492188 995.152344 2138.417969 C 998.476562 2159.328125 960.917969 2189.742188 960.917969 2189.742188 C 930.007812 2224.445312 1002.285156 2220.175781 1020.359375 2222.070312 Z M 1085.5 2155.519531 C 1105.46875 2134.128906 1101.679688 2129.859375 1101.679688 2129.859375 C 1101.679688 2129.859375 1058.398438 2075.660156 1044.617188 2050.480469 C 1030.816406 2025.28125 1015.121094 1974.425781 993.722656 1948.28125 C 972.320312 1922.136719 973.753906 2005.320312 982.796875 2036.21875 C 991.828125 2067.117188 997.066406 2081.378906 1007.988281 2107.039062 C 1018.925781 2132.699219 1056.96875 2178.824219 1056.96875 2178.824219 C 1076.9375 2205.433594 1065.53125 2176.910156 1085.5 2155.519531 Z M 1209.621094 2256.773438 C 1236.242188 2248.214844 1226.265625 2222.070312 1224.351562 2194.980469 C 1222.457031 2167.886719 1193.925781 2180.71875 1164.910156 2180.71875 C 1135.914062 2180.71875 1124.972656 2150.304688 1108.8125 2155.519531 C 1092.632812 2160.757812 1085.5 2206.378906 1085.5 2206.378906 C 1114.515625 2240.136719 1182.984375 2265.335938 1209.621094 2256.773438 Z M 1122.597656 2020.046875 C 1118.324219 1991.0625 1173.957031 1978.210938 1202.488281 1960.164062 C 1231.484375 1942.097656 1159.207031 1920.222656 1138.757812 1923.082031 C 1118.324219 1925.921875 1086.933594 1887.894531 1063.636719 1887.894531 C 1040.328125 1887.894531 1027.492188 1947.3125 1041.757812 1978.210938 C 1056.023438 2009.109375 1070.769531 2023.371094 1077.902344 2062.828125 C 1085.039062 2102.285156 1112.136719 2106.09375 1112.136719 2106.09375 C 1125.921875 2112.738281 1126.867188 2048.566406 1122.597656 2020.046875 Z M 781.648438 2155.058594 C 781.648438 2155.058594 823.960938 2111.792969 801.613281 2094.671875 C 779.734375 2077.570312 788.78125 2057.609375 781.648438 2030.5 C 774.515625 2003.410156 792.585938 1978.210938 754.546875 1978.210938 C 716.503906 1978.210938 646.121094 2021.476562 655.148438 2041.4375 C 664.195312 2061.398438 700.324219 2099.425781 700.324219 2129.859375 C 700.324219 2160.273438 781.648438 2155.058594 781.648438 2155.058594 Z M 825.390625 2236.332031 C 865.328125 2250.589844 895.289062 2227.304688 924.769531 2214.476562 C 954.265625 2201.625 897.203125 2171.210938 940.949219 2167.886719 C 984.691406 2164.082031 978.507812 2086.59375 960.433594 2063.3125 C 942.378906 2039.542969 960.433594 2016.238281 960.433594 1971.082031 C 960.433594 1925.921875 844.894531 1956.820312 806.851562 1987.253906 C 769.277344 2018.152344 830.148438 2073.765625 824.910156 2109.898438 C 819.6875 2146.015625 788.296875 2184.042969 788.296875 2184.042969 C 788.296875 2184.042969 785.453125 2222.070312 825.390625 2236.332031 Z M 718.878906 2360.867188 C 726.011719 2395.109375 924.769531 2406.027344 941.414062 2402.238281 C 958.054688 2398.433594 895.773438 2297.660156 861.539062 2266.765625 C 827.285156 2235.867188 771.1875 2256.292969 771.1875 2256.292969 C 773.082031 2223.984375 751.203125 2181.664062 718.878906 2169.316406 C 686.539062 2156.46875 711.746094 2210.667969 642.796875 2256.292969 C 573.84375 2301.933594 610.457031 2311.921875 620.914062 2340.90625 C 631.855469 2369.910156 711.265625 2326.648438 711.265625 2326.648438 C 711.265625 2326.648438 711.265625 2326.648438 718.878906 2360.867188 Z M 942.378906 2346.609375 C 977.078125 2379.417969 1025.113281 2377.988281 1052.699219 2377.507812 C 1097.871094 2376.09375 1173.957031 2360.867188 1181.089844 2323.324219 C 1183.933594 2308.117188 1174.421875 2293.371094 1170.148438 2287.1875 C 1155.882812 2265.335938 1140.1875 2270.089844 1106.898438 2245.835938 C 1081.230469 2226.824219 1074.5625 2212.5625 1061.726562 2214.941406 C 1049.835938 2217.316406 1050.785156 2230.628906 1036.519531 2238.242188 C 1019.875 2247.265625 1008.46875 2235.382812 977.078125 2234.4375 C 967.566406 2233.953125 922.875 2232.523438 910.039062 2256.292969 C 904.800781 2265.796875 907.179688 2276.269531 910.039062 2288.617188 C 910.988281 2293.855469 918.121094 2323.324219 942.378906 2346.609375 Z M 1166.339844 2153.628906 C 1171.578125 2156.46875 1186.792969 2155.519531 1216.753906 2153.628906 C 1257.640625 2151.25 1262.878906 2148.875 1267.148438 2144.585938 C 1278.574219 2133.183594 1268.578125 2121.300781 1276.195312 2094.207031 C 1285.707031 2059.988281 1306.621094 2057.609375 1308.535156 2030.984375 C 1309.945312 2012.917969 1302.351562 1992.007812 1286.652344 1980.589844 C 1254.796875 1956.820312 1204.867188 1986.308594 1196.304688 1991.523438 C 1188.6875 1996.277344 1149.699219 2019.097656 1140.1875 2065.6875 C 1134.96875 2095.636719 1141.132812 2140.3125 1166.339844 2153.628906 Z M 567.175781 2247.265625 C 625.1875 2283.402344 659.441406 2207.34375 679.40625 2156.949219 C 699.375 2106.554688 648.5 2059.503906 587.144531 2028.605469 C 525.808594 1997.707031 545.777344 2053.804688 489.679688 2084.21875 C 433.5625 2114.652344 431.652344 2151.714844 431.652344 2185.953125 C 431.652344 2220.175781 503.945312 2210.1875 509.164062 2211.132812 C 554.339844 2222.070312 509.164062 2211.132812 567.175781 2247.265625 Z M 298.039062 1782.855469 C 321.332031 1921.652344 341.300781 1947.3125 332.273438 1971.082031 C 323.246094 1994.847656 305.171875 2036.21875 363.664062 2073.765625 C 422.140625 2111.308594 487.300781 2035.738281 516.296875 1997.707031 C 545.3125 1959.679688 505.355469 1939.71875 480.167969 1922.601562 C 454.960938 1905.5 424.054688 1789.984375 411.683594 1744.824219 C 398.847656 1699.667969 409.789062 1598.414062 433.5625 1571.324219 C 457.339844 1544.230469 442.589844 1524.253906 415.488281 1493.835938 C 388.390625 1463.421875 288.992188 1495.730469 254.757812 1504.773438 C 220.523438 1513.796875 254.757812 1571.789062 254.757812 1571.789062 C 285.203125 1582.722656 274.261719 1644.519531 298.039062 1782.855469 Z M 335.597656 1308.449219 C 335.597656 1308.449219 263.320312 1321.28125 252.378906 1360.738281 C 241.4375 1400.199219 232.410156 1452.949219 261.425781 1461.992188 C 290.421875 1471.015625 360.804688 1483.847656 373.175781 1442.03125 C 385.527344 1400.199219 411.21875 1365.976562 373.175781 1337.453125 C 335.132812 1308.933594 371.746094 1297.996094 335.597656 1308.449219 Z M 989.449219 1256.644531 C 948.082031 1291.332031 969.480469 1561.332031 971.375 1637.390625 C 973.289062 1713.445312 933.332031 1734.835938 942.378906 1805.191406 C 951.40625 1875.546875 962.347656 1904.53125 985.640625 1920.707031 C 1008.953125 1936.859375 1028.921875 1871.742188 1054.128906 1861.285156 C 1079.316406 1850.832031 1070.289062 1803.296875 1069.804688 1781.90625 C 1069.339844 1760.515625 1066.480469 1714.875 1069.804688 1662.585938 C 1073.148438 1610.296875 1074.097656 1431.558594 1108.332031 1354.09375 C 1142.566406 1276.605469 1112.136719 1296.085938 1135.433594 1242.386719 C 1158.742188 1188.183594 1117.359375 1144.9375 1056.023438 1142.5625 C 994.6875 1140.183594 999.90625 1227.640625 999.90625 1227.640625 C 999.90625 1227.640625 1031.296875 1221.941406 989.449219 1256.644531 Z M 972.320312 1125.441406 C 978.042969 1135.429688 1015.121094 1108.804688 1059.832031 1112.128906 C 1103.574219 1114.988281 1133.054688 1144.9375 1161.121094 1133.054688 C 1163.964844 1131.625 1166.824219 1130.675781 1168.253906 1127.816406 C 1174.90625 1113.09375 1130.675781 1080.765625 1143.511719 1063.644531 C 1158.261719 1043.683594 1150.644531 982.371094 1143.046875 917.234375 C 1135.914062 852.113281 1144.941406 872.074219 1143.046875 816 C 1141.132812 759.90625 1032.730469 797.933594 1003.714844 803.148438 C 974.234375 808.386719 993.257812 961.929688 993.257812 1003.761719 C 993.257812 1045.578125 991.34375 1076.011719 973.289062 1117.363281 C 971.375 1121.636719 971.375 1123.546875 972.320312 1125.441406 Z M 910.039062 1922.136719 C 951.40625 1916.898438 893.859375 1768.59375 888.15625 1714.394531 C 882.453125 1660.210938 893.859375 1284.683594 888.15625 1219.5625 C 882.453125 1154.445312 778.320312 1133.054688 756.441406 1127.355469 C 735.042969 1122.117188 736.472656 1120.222656 689.382812 1203.410156 C 642.3125 1286.578125 765.46875 1528.058594 783.078125 1598.414062 C 801.132812 1668.769531 770.222656 1808.050781 766.433594 1874.601562 C 762.140625 1941.613281 833.472656 1934.964844 833.472656 1934.964844 C 862.949219 1898.832031 868.671875 1927.835938 910.039062 1922.136719 Z M 784.972656 1098.351562 C 825.875 1105.964844 842.980469 1126.386719 872.460938 1120.6875 C 910.503906 1113.558594 870.566406 1068.398438 859.625 1025.152344 C 848.683594 981.890625 854.40625 830.261719 825.390625 796.019531 C 796.859375 761.796875 738.367188 763.710938 682.25 803.148438 C 626.152344 842.609375 718.878906 1016.109375 669.898438 1063.183594 C 649.445312 1082.660156 644.207031 1099.296875 646.121094 1113.09375 C 648.964844 1132.570312 666.574219 1152.53125 680.839844 1150.636719 C 697 1148.746094 694.621094 1120.6875 718.878906 1104.996094 C 740.28125 1089.789062 768.328125 1095.492188 784.972656 1098.351562 Z M 505.355469 1595.554688 C 505.355469 1631.6875 552.445312 1864.609375 551.015625 1924.03125 C 549.585938 1983.449219 563.386719 1982.019531 597.621094 2007.214844 C 631.855469 2032.414062 648.015625 2007.214844 677.03125 1974.886719 C 706.027344 1942.5625 753.113281 1951.601562 754.546875 1922.601562 C 756.441406 1893.613281 696.515625 1814.214844 675.117188 1763.839844 C 653.253906 1713.445312 595.707031 1446.300781 599.03125 1383.078125 C 602.839844 1319.851562 573.84375 1226.210938 562.902344 1168.222656 C 551.960938 1110.234375 461.613281 1161.09375 387.90625 1204.355469 C 314.199219 1247.601562 429.273438 1361.222656 429.273438 1361.222656 C 429.273438 1361.222656 505.355469 1559.441406 505.355469 1595.554688 Z M 1201.058594 1602.683594 C 1206.296875 1680.171875 1150.644531 1703.9375 1105.46875 1772.398438 C 1060.292969 1840.84375 1101.679688 1880.765625 1143.511719 1882.675781 C 1185.363281 1884.570312 1206.761719 1925.921875 1231.019531 1934.964844 C 1255.261719 1943.992188 1284.277344 1875.546875 1271.90625 1817.558594 C 1259.070312 1759.550781 1295.21875 1664.015625 1288.546875 1595.554688 C 1281.898438 1527.113281 1343.71875 1416.835938 1366.0625 1366.441406 C 1388.410156 1316.0625 1357.984375 1287.058594 1348.472656 1249.03125 C 1338.960938 1211.003906 1246.234375 1230.964844 1219.132812 1241.902344 C 1192.03125 1252.839844 1206.296875 1308.933594 1206.296875 1308.933594 C 1231.484375 1315.582031 1195.355469 1525.21875 1201.058594 1602.683594 Z M 1305.675781 1070.3125 C 1285.707031 1151.585938 1280.46875 1084.574219 1238.617188 1140.648438 C 1196.785156 1196.742188 1323.265625 1205.785156 1365.597656 1203.875 C 1407.914062 1201.980469 1365.117188 1149.691406 1390.324219 1150.636719 C 1415.527344 1151.121094 1412.1875 1076.011719 1412.1875 1030.855469 C 1412.1875 985.695312 1430.257812 884.441406 1457.359375 846.898438 C 1484.480469 808.871094 1444.523438 801.738281 1417.421875 803.632812 C 1390.324219 805.527344 1370.355469 780.347656 1347.042969 781.757812 C 1323.75 783.671875 1347.042969 846.898438 1347.042969 846.898438 C 1363.222656 867.804688 1325.644531 989.019531 1305.675781 1070.3125 Z M 1378.898438 672.910156 C 1336.585938 748.96875 1408.859375 775.59375 1454.035156 772.253906 C 1499.210938 768.464844 1481.136719 703.808594 1466.871094 658.652344 C 1452.605469 613.492188 1464.976562 559.3125 1488.753906 485.148438 C 1512.046875 410.988281 1479.726562 410.988281 1450.710938 434.753906 C 1421.695312 458.523438 1436.445312 438.558594 1403.640625 445.691406 C 1371.300781 452.820312 1394.59375 536.007812 1394.59375 536.007812 C 1394.59375 536.007812 1421.230469 597.339844 1378.898438 672.910156 Z M 1484.480469 393.402344 C 1522.523438 380.570312 1462.597656 292.148438 1468.300781 272.671875 C 1473.539062 252.691406 1470.214844 238.429688 1468.300781 180.441406 C 1466.40625 122.453125 1412.1875 146.21875 1386.03125 180.441406 C 1359.878906 214.664062 1414.097656 283.125 1392.21875 341.113281 C 1370.355469 399.101562 1412.1875 415.277344 1412.1875 415.277344 C 1436.929688 445.207031 1446.4375 405.769531 1484.480469 393.402344 Z M 266.644531 745.160156 C 276.640625 788.425781 294.230469 880.636719 303.257812 923.898438 C 312.304688 967.144531 323.246094 1030.371094 321.332031 1102.621094 C 319.4375 1174.890625 371.746094 1151.585938 405.980469 1120.6875 C 440.214844 1089.789062 508.699219 1111.664062 541.503906 1097.402344 C 573.84375 1083.144531 516.296875 996.148438 463.988281 958.605469 C 411.683594 920.578125 415.007812 805.0625 395.523438 765.605469 C 375.554688 725.683594 374.121094 675.289062 391.714844 648.199219 C 409.789062 621.105469 355.566406 604.933594 314.199219 628.238281 C 272.832031 651.519531 272.832031 635.367188 238.113281 650.089844 C 203.398438 664.835938 250.949219 693.355469 250.949219 693.355469 C 250.949219 693.355469 256.1875 701.914062 266.644531 745.160156 Z M 150.625 344.4375 C 154.898438 352.996094 172.488281 349.191406 175.832031 358.234375 C 177.726562 362.988281 174.402344 368.203125 172.972656 371.066406 C 164.40625 389.597656 183.910156 415.738281 194.851562 434.753906 C 198.175781 440.453125 233.359375 495.601562 221.953125 552.179688 C 212.90625 597.339844 216.714844 611.597656 256.1875 611.597656 C 295.660156 611.597656 326.570312 582.59375 366.507812 582.59375 C 406.460938 582.59375 368.421875 517.476562 325.140625 479.914062 C 297.089844 455.199219 282.824219 362.988281 278.070312 346.351562 C 276.640625 341.597656 274.726562 333.035156 268.078125 329.230469 C 265.699219 327.800781 263.320312 327.335938 261.890625 325.421875 C 261.425781 324.476562 260.460938 321.617188 264.269531 312.109375 C 268.078125 303.570312 270.453125 302.601562 269.507812 301.191406 C 266.644531 295.472656 245.730469 299.277344 211.011719 312.109375 C 162.03125 330.175781 156.808594 324.960938 156.808594 324.960938 C 149.195312 334.929688 148.710938 341.113281 150.625 344.4375 Z M 149.675781 281.210938 C 149.675781 281.210938 113.53125 275.996094 142.542969 243.183594 C 171.539062 210.390625 99.265625 129.582031 106.398438 89.660156 C 113.53125 49.71875 174.867188 5.046875 185.804688 37.371094 C 196.746094 69.679688 214.820312 214.199219 254.292969 236.054688 C 293.746094 257.925781 203.878906 301.191406 149.675781 281.210938 " fill-opacity="1" fill-rule="nonzero"/></g><path fill="#d9d9d9" d="M 352.242188 1745.289062 C 354.617188 1782.855469 362.699219 1820.398438 367.9375 1857.480469 C 370.796875 1878.871094 374.585938 1900.261719 374.121094 1921.652344 C 373.640625 1938.289062 371.746094 1953.496094 377.929688 1969.671875 C 380.308594 1975.835938 389.820312 1972.992188 387.441406 1966.8125 C 381.253906 1947.3125 384.582031 1929.265625 383.632812 1909.285156 C 382.6875 1892.648438 379.34375 1876.011719 376.5 1859.375 C 369.832031 1821.347656 366.042969 1781.90625 356.53125 1744.34375 C 356.050781 1742.449219 352.242188 1742.914062 352.242188 1745.289062 Z M 298.984375 1517.605469 C 288.527344 1532.8125 290.90625 1550.398438 296.609375 1567.515625 C 306.117188 1596.984375 318.488281 1620.289062 319.4375 1652.597656 C 319.902344 1680.652344 318.007812 1708.226562 321.332031 1735.785156 C 324.65625 1763.355469 330.84375 1789.984375 337.027344 1816.59375 C 344.160156 1846.542969 351.777344 1876.496094 355.101562 1907.390625 C 357.945312 1933.054688 354.617188 1958.734375 357.480469 1983.929688 C 361.289062 2014.828125 390.285156 2053.804688 424.519531 2032.878906 C 431.1875 2029.089844 425.484375 2019.582031 418.351562 2022.421875 C 380.773438 2040.488281 367.9375 1992.007812 367.453125 1965.863281 C 366.988281 1943.042969 367.453125 1921.167969 364.128906 1898.832031 C 358.425781 1857.480469 345.589844 1817.074219 337.027344 1776.1875 C 332.273438 1752.902344 328.464844 1729.617188 328 1705.851562 C 327.515625 1683.976562 329.894531 1662.105469 328.464844 1639.765625 C 325.621094 1599.84375 290.90625 1559.441406 305.636719 1520.464844 C 308.011719 1516.65625 301.363281 1514.28125 298.984375 1517.605469 Z M 608.542969 2161.703125 C 586.195312 2147.925781 552.910156 2152.199219 542.933594 2123.675781 C 541.503906 2119.40625 534.371094 2119.871094 534.371094 2124.625 C 534.855469 2159.328125 584.765625 2155.519531 606.164062 2165.976562 C 609.027344 2166.941406 611.402344 2163.132812 608.542969 2161.703125 Z M 1244.339844 2025.746094 C 1234.34375 2035.253906 1221.972656 2050.480469 1221.027344 2064.742188 C 1220.5625 2068.527344 1225.78125 2069.492188 1227.695312 2066.632812 C 1231.484375 2060.933594 1233.398438 2053.320312 1236.722656 2047.136719 C 1240.046875 2040.972656 1244.339844 2034.789062 1248.613281 2029.089844 C 1250.988281 2026.710938 1246.714844 2023.851562 1244.339844 2025.746094 Z M 1225.316406 2130.324219 C 1240.046875 2134.613281 1248.613281 2122.730469 1251.9375 2109.414062 C 1254.796875 2097.53125 1254.3125 2085.164062 1258.605469 2073.765625 C 1265.253906 2054.75 1276.195312 2043.8125 1292.839844 2032.414062 C 1297.113281 2029.554688 1293.304688 2022.421875 1288.546875 2025.28125 C 1274.765625 2033.84375 1263.824219 2045.726562 1257.175781 2060.449219 C 1250.507812 2074.710938 1249.558594 2129.375 1226.265625 2127 C 1223.886719 2126.054688 1223.40625 2129.375 1225.316406 2130.324219 Z M 596.65625 2219.695312 C 586.195312 2203.054688 571.929688 2192.601562 553.394531 2185.953125 C 542.933594 2182.613281 535.800781 2182.148438 525.808594 2174.535156 C 522.96875 2172.160156 520.589844 2168.835938 517.246094 2166.941406 C 514.867188 2165.511719 511.078125 2165.027344 508.699219 2163.597656 C 489.195312 2152.199219 494.433594 2138.417969 502.515625 2125.105469 C 505.355469 2120.816406 498.707031 2115.597656 495.382812 2119.40625 C 481.582031 2135.078125 474.449219 2160.757812 497.277344 2171.210938 C 505.839844 2175.019531 513.457031 2177.394531 521.054688 2182.613281 C 525.34375 2185.472656 529.132812 2187.847656 534.371094 2189.277344 C 543.398438 2192.121094 552.910156 2192.601562 561.957031 2195.925781 C 574.792969 2201.164062 584.765625 2209.722656 592.867188 2220.640625 C 594.761719 2223.015625 598.085938 2221.605469 596.65625 2219.695312 Z M 869.621094 2373.234375 C 842.519531 2348.519531 803.046875 2353.738281 774.515625 2332.347656 C 759.765625 2321.429688 747.414062 2308.117188 730.285156 2300.984375 C 717.449219 2295.75 671.792969 2296.695312 667.519531 2284.8125 C 665.605469 2280.542969 658.472656 2280.542969 658.957031 2285.777344 C 659.441406 2298.125 667.035156 2303.828125 679.40625 2305.257812 C 690.8125 2306.6875 701.753906 2303.828125 713.640625 2306.6875 C 728.855469 2310.011719 741.226562 2318.085938 753.113281 2327.59375 C 767.378906 2339.011719 780.699219 2349.949219 798.753906 2354.703125 C 822.53125 2361.351562 848.21875 2358.976562 868.671875 2374.664062 C 869.136719 2376.09375 871.050781 2374.183594 869.621094 2373.234375 Z M 1144.941406 2301.933594 C 1151.609375 2305.257812 1124.027344 2329.972656 1122.597656 2330.9375 C 1113.085938 2336.152344 1104.058594 2337.101562 1093.582031 2338.066406 C 1074.5625 2339.476562 1055.074219 2349.46875 1036.519531 2342.335938 C 1014.171875 2334.261719 995.632812 2312.386719 969.945312 2316.675781 C 965.1875 2317.140625 967.101562 2323.804688 970.910156 2324.269531 C 993.722656 2326.648438 1008.46875 2339.960938 1028.4375 2348.519531 C 1052.214844 2358.976562 1065.53125 2346.609375 1089.792969 2344.230469 C 1106.898438 2342.820312 1119.734375 2340.90625 1134 2330.453125 C 1142.566406 2323.804688 1157.3125 2310.957031 1152.558594 2299.074219 C 1152.074219 2297.660156 1150.644531 2296.230469 1148.75 2296.230469 C 1147.804688 2296.230469 1147.320312 2296.230469 1146.371094 2296.230469 C 1143.511719 2296.230469 1141.617188 2300.503906 1144.941406 2301.933594 Z M 1433.121094 174.257812 C 1454.035156 210.875 1424.074219 244.148438 1431.207031 281.695312 C 1436.929688 313.539062 1458.792969 339.683594 1463.082031 372.496094 C 1464.027344 377.710938 1472.59375 376.28125 1472.109375 371.066406 C 1470.679688 333.5 1438.339844 304.515625 1437.875 266.953125 C 1437.875 236.535156 1465.925781 196.132812 1437.390625 170.46875 C 1435.015625 168.558594 1431.207031 171.417969 1433.121094 174.257812 Z M 142.542969 57.796875 C 159.652344 73.488281 161.082031 112.464844 165.355469 134.335938 C 170.109375 159.050781 174.402344 184.25 180.585938 208.5 C 182 214.664062 191.507812 212.285156 190.097656 205.640625 C 183.429688 173.3125 173.917969 141.464844 166.785156 109.140625 C 162.511719 90.125 162.511719 65.410156 145.871094 53.527344 C 143.492188 51.632812 140.167969 55.902344 142.542969 57.796875 Z M 1473.539062 453.769531 C 1453.089844 493.226562 1445.007812 533.167969 1441.683594 577.359375 C 1437.875 628.699219 1433.585938 679.558594 1430.742188 730.902344 C 1430.257812 737.085938 1439.769531 737.085938 1440.253906 730.902344 C 1445.957031 640.585938 1435.960938 539.332031 1477.347656 456.144531 C 1479.242188 453.304688 1474.96875 450.925781 1473.539062 453.769531 Z M 221.007812 313.074219 C 222.902344 324.476562 221.007812 336.359375 225.761719 346.8125 C 232.894531 363.453125 244.300781 372.496094 246.195312 391.972656 C 248.574219 415.738281 244.78125 439.507812 250.003906 463.273438 C 259.511719 507.023438 286.613281 547.425781 324.65625 571.660156 C 329.894531 574.980469 334.167969 566.90625 329.410156 563.582031 C 287.097656 532.683594 258.566406 487.523438 255.707031 434.289062 C 254.757812 413.847656 258.082031 392.457031 250.949219 372.957031 C 248.109375 364.882812 242.40625 358.699219 238.113281 351.105469 C 230.980469 338.738281 232.410156 324.476562 227.65625 311.644531 C 226.226562 306.890625 220.523438 308.785156 221.007812 313.074219 Z M 1423.609375 856.40625 C 1390.324219 893.003906 1392.699219 950.507812 1389.839844 996.632812 C 1387.460938 1028.476562 1383.191406 1058.890625 1367.976562 1087.414062 C 1361.789062 1098.832031 1354.65625 1109.285156 1349.902344 1121.171875 C 1346.578125 1130.195312 1346.09375 1163.003906 1336.101562 1163.953125 C 1330.398438 1164.417969 1330.398438 1172.511719 1336.101562 1172.976562 C 1343.71875 1173.460938 1347.523438 1171.546875 1351.796875 1165.382812 C 1354.65625 1161.09375 1354.175781 1157.769531 1354.65625 1152.066406 C 1355.605469 1139.703125 1355.605469 1129.730469 1360.84375 1117.847656 C 1373.195312 1091.21875 1387.460938 1069.828125 1393.164062 1040.359375 C 1398.402344 1012.785156 1398.402344 984.75 1400.296875 956.691406 C 1402.675781 920.578125 1410.289062 891.089844 1426.933594 858.78125 C 1427.882812 856.867188 1425.039062 854.492188 1423.609375 856.40625 Z M 332.273438 665.296875 C 343.679688 685.742188 338.457031 707.132812 336.082031 729.007812 C 334.167969 748.484375 333.21875 768.464844 334.648438 788.425781 C 337.027344 822.648438 347.019531 854.972656 360.320312 886.335938 C 374.585938 919.148438 390.765625 955.746094 413.113281 983.785156 C 434.027344 1010.410156 464.472656 1027.996094 477.792969 1060.320312 C 480.167969 1066.503906 490.628906 1063.644531 487.765625 1057.460938 C 476.824219 1030.371094 455.425781 1013.269531 434.992188 992.824219 C 406.925781 964.304688 389.335938 924.847656 372.691406 889.195312 C 353.1875 847.363281 342.265625 805.0625 342.730469 758.957031 C 343.214844 728.058594 356.53125 690.03125 337.027344 662.457031 C 335.132812 659.597656 330.378906 661.976562 332.273438 665.296875 Z M 529.617188 1510.957031 C 537.695312 1572.753906 542.453125 1642.144531 565.28125 1700.132812 C 566.710938 1703.9375 574.308594 1703.9375 573.363281 1699.183594 C 569.554688 1668.769531 559.578125 1638.820312 552.910156 1608.867188 C 545.3125 1576.078125 539.609375 1543.265625 534.371094 1509.992188 C 533.890625 1507.617188 529.132812 1508.582031 529.617188 1510.957031 Z M 479.6875 1189.613281 C 506.789062 1177.265625 530.5625 1200.550781 536.265625 1225.746094 C 540.558594 1244.761719 536.265625 1264.722656 533.890625 1283.253906 C 529.617188 1316.527344 529.617188 1348.855469 533.890625 1382.128906 C 541.988281 1444.871094 561.957031 1505.238281 579.0625 1566.085938 C 587.628906 1596.984375 596.191406 1628.367188 601.894531 1660.210938 C 607.597656 1692.054688 609.507812 1723.898438 615.675781 1755.761719 C 620.914062 1784.285156 629.941406 1812.804688 646.585938 1837.035156 C 664.195312 1862.714844 687.003906 1883.140625 702.703125 1910.25 C 706.507812 1916.898438 716.503906 1911.199219 713.160156 1904.070312 C 696.515625 1871.742188 666.574219 1849.402344 648.5 1818.023438 C 629.476562 1784.285156 624.722656 1744.824219 619.96875 1707.261719 C 610.921875 1635.960938 590.488281 1568 570.984375 1499.074219 C 549.585938 1424.910156 536.265625 1352.664062 542.933594 1275.660156 C 544.828125 1250.460938 547.691406 1220.027344 529.132812 1199.601562 C 515.351562 1184.394531 495.847656 1175.835938 476.824219 1184.394531 C 472.070312 1185.34375 475.414062 1191.527344 479.6875 1189.613281 Z M 1261.445312 1449.160156 C 1258.121094 1466.746094 1251.9375 1486.222656 1252.417969 1504.773438 C 1252.417969 1507.617188 1256.226562 1508.097656 1257.175781 1505.238281 C 1262.878906 1488.136719 1263.359375 1467.691406 1265.253906 1449.625 C 1265.253906 1447.730469 1261.929688 1447.25 1261.445312 1449.160156 Z M 1288.082031 1280.878906 C 1312.324219 1278.984375 1322.800781 1306.074219 1317.5625 1326.035156 C 1314.238281 1339.832031 1305.675781 1351.714844 1300.4375 1364.0625 C 1291.410156 1384.988281 1290.925781 1405.414062 1290.925781 1427.769531 C 1290.925781 1483.847656 1260.015625 1526.164062 1246.714844 1577.972656 C 1220.5625 1677.332031 1276.195312 1786.179688 1226.730469 1880.765625 C 1223.886719 1886 1231.96875 1891.238281 1234.828125 1885.519531 C 1261.929688 1834.195312 1258.605469 1777.152344 1253.367188 1721.058594 C 1250.507812 1690.160156 1247.179688 1659.261719 1248.613281 1627.882812 C 1250.042969 1591.765625 1260.984375 1559.902344 1274.765625 1527.113281 C 1285.222656 1502.863281 1295.21875 1478.628906 1297.59375 1452.003906 C 1299.023438 1435.847656 1296.648438 1419.210938 1297.59375 1403.039062 C 1298.542969 1382.128906 1306.15625 1366.441406 1315.183594 1347.910156 C 1323.265625 1330.789062 1329.933594 1313.203125 1321.371094 1295.136719 C 1314.703125 1281.359375 1302.8125 1271.851562 1287.601562 1277.070312 C 1285.707031 1278.035156 1285.707031 1280.878906 1288.082031 1280.878906 Z M 1080.28125 878.257812 C 1079.316406 919.148438 1072.183594 965.253906 1079.316406 1005.65625 C 1079.800781 1008.515625 1084.554688 1008.515625 1085.039062 1005.65625 C 1092.171875 965.253906 1085.039062 919.148438 1084.070312 878.257812 C 1084.070312 875.417969 1080.28125 875.417969 1080.28125 878.257812 Z M 776.410156 864.480469 C 772.601562 910.105469 770.707031 959.070312 774.515625 1004.710938 C 774.976562 1010.894531 784.023438 1010.894531 784.023438 1004.710938 C 783.078125 958.121094 780.214844 911.070312 779.269531 864.480469 C 779.734375 862.570312 776.410156 862.570312 776.410156 864.480469 Z M 753.578125 797.933594 C 828.714844 788.890625 795.914062 904.402344 800.667969 945.292969 C 805.886719 989.503906 820.152344 1037.039062 840.605469 1076.476562 C 842.980469 1081.230469 850.597656 1077.90625 849.167969 1072.6875 C 840.605469 1041.789062 825.875 1013.269531 818.257812 981.890625 C 808.746094 945.292969 809.695312 911.535156 812.074219 874.453125 C 814.449219 841.179688 800.183594 780.347656 752.632812 794.125 C 751.203125 795.074219 751.203125 798.398438 753.578125 797.933594 Z M 1077.421875 813.621094 C 1116.410156 817.894531 1104.058594 883.011719 1104.058594 908.210938 C 1104.058594 929.601562 1104.523438 950.992188 1105.953125 972.382812 C 1108.332031 1015.648438 1113.085938 1058.429688 1119.734375 1101.210938 C 1120.703125 1108.339844 1131.625 1104.996094 1130.210938 1098.351562 C 1120.21875 1035.125 1113.570312 972.382812 1111.191406 908.691406 C 1110.226562 880.636719 1122.597656 808.871094 1077.421875 808.386719 C 1073.613281 807.902344 1073.613281 813.140625 1077.421875 813.621094 Z M 1080.28125 1166.328125 C 1143.996094 1195.796875 1099.765625 1273.28125 1081.695312 1317.011719 C 1059.832031 1370.730469 1048.40625 1428.71875 1040.328125 1486.222656 C 1023.683594 1600.308594 1022.734375 1715.359375 1034.625 1829.90625 C 1035.105469 1837.035156 1046.511719 1837.035156 1045.566406 1829.90625 C 1030.816406 1698.722656 1034.625 1564.65625 1058.398438 1435.367188 C 1064.101562 1404.46875 1071.234375 1374.054688 1081.230469 1344.585938 C 1090.738281 1316.527344 1104.523438 1289.917969 1113.085938 1261.398438 C 1124.027344 1225.265625 1121.648438 1179.640625 1084.070312 1160.628906 C 1079.800781 1158.25 1075.992188 1164.417969 1080.28125 1166.328125 Z M 777.355469 1195.796875 C 774.03125 1195.796875 774.03125 1190.5625 777.355469 1190.5625 C 818.257812 1188.667969 844.414062 1225.265625 849.652344 1262.808594 C 853.921875 1293.707031 846.789062 1325.089844 843.929688 1355.984375 C 840.605469 1389.742188 839.65625 1423.019531 839.65625 1456.757812 C 840.605469 1595.554688 867.707031 1730.566406 891.484375 1866.988281 C 892.914062 1873.636719 882.453125 1876.976562 881.023438 1869.847656 C 858.195312 1755.28125 838.710938 1637.871094 832.523438 1520.929688 C 829.199219 1461.046875 830.628906 1401.628906 837.761719 1342.207031 C 843.929688 1292.761719 854.871094 1193.902344 777.355469 1195.796875 " fill-opacity="1" fill-rule="nonzero"/><g clip-path="url(#88d73ee453)"><path fill="#d9d9d9" d="M 537.199219 1960.058594 L 963.390625 1960.058594 L 963.390625 2402.964844 L 537.199219 2402.964844 Z M 537.199219 1960.058594 " fill-opacity="1" fill-rule="nonzero"/></g><g clip-path="url(#7cbd9a023c)"><path fill="#d9d9d9" d="M 630.203125 1418.28125 L 1056.394531 1418.28125 L 1056.394531 1960.074219 L 630.203125 1960.074219 Z M 630.203125 1418.28125 " fill-opacity="1" fill-rule="nonzero"/></g><path stroke-linecap="butt" transform="matrix(6.303303, 0, 0, 6.303303, 133.55672, 917.628922)" fill="none" stroke-linejoin="miter" d="M 74.812261 226.117175 L 100.351325 200.578111 L 101.445122 151.523351 L 85.586002 129.593505 L 42.546813 126.695099 L 45.0077 97.765576 L 60.484456 98.695148 L 62.945344 115.48446 L 96.523348 116.578256 L 97.23416 83.65653 L 79.078377 63.312535 L 29.586099 61.507925 L 5.140831 86.336177 L 4.484553 137.195546 L 25.539362 162.95337 L 61.797012 162.95337 L 61.797012 190.078284 L 44.570182 187.398637 L 42.328054 171.921881 L 7.382959 173.288972 L 5.797109 202.163961 L 28.656527 225.898416 Z M 74.812261 226.117175 " stroke="#d9d9d9" stroke-width="21.559999" stroke-opacity="1" stroke-miterlimit="4"/><g fill="#000000" fill-opacity="1"><g transform="translate(133.55672, 2323.265561)"><g><path d="M 471.589844 19.765625 L 632.550781 -141.195312 L 639.609375 -450.410156 L 539.359375 -588.777344 L 268.269531 -607.132812 L 283.800781 -789.273438 L 381.222656 -783.625 L 396.753906 -677.730469 L 608.546875 -670.671875 L 612.78125 -878.226562 L 498.414062 -1006.714844 L 186.375 -1018.007812 L 32.476562 -861.285156 L 28.238281 -540.773438 L 160.960938 -378.398438 L 389.695312 -378.398438 L 389.695312 -207.554688 L 280.976562 -224.5 L 266.855469 -321.921875 L 46.59375 -313.449219 L 36.710938 -131.308594 L 180.726562 18.355469 Z M 471.589844 19.765625 "/></g></g></g><path stroke-linecap="butt" transform="matrix(6.303303, 0, 0, 6.303303, 843.358505, 917.628922)" fill="none" stroke-linejoin="miter" d="M 52.664117 225.679657 L 50.640748 158.030975 L 67.210681 158.249735 L 66.281109 224.093807 L 111.343666 220.320364 L 105.711079 57.898707 L 64.312275 60.359594 L 69.671568 122.429603 L 48.836139 123.30464 L 49.711176 61.726685 L 10.992018 59.047038 L 8.96865 222.562491 Z M 52.664117 225.679657 " stroke="#d9d9d9" stroke-width="21.559999" stroke-opacity="1" stroke-miterlimit="4"/><g fill="#000000" fill-opacity="1"><g transform="translate(843.358505, 2323.265561)"><g><path d="M 331.804688 16.941406 L 319.097656 -409.460938 L 423.582031 -408.050781 L 417.933594 7.058594 L 701.734375 -16.941406 L 666.4375 -1040.601562 L 405.226562 -1025.070312 L 439.113281 -633.960938 L 307.804688 -628.3125 L 313.449219 -1016.597656 L 69.183594 -1033.539062 L 56.476562 -2.824219 Z M 331.804688 16.941406 "/></g></g></g><path stroke-linecap="butt" transform="matrix(6.303303, 0, 0, 6.303303, 1577.256151, 917.628922)" fill="none" stroke-linejoin="miter" d="M 8.968775 226.117175 L 47.249794 221.906214 L 49.710682 187.617397 L 64.968678 188.492434 L 66.062475 224.367101 L 108.882905 224.093807 L 101.719002 86.117417 L 89.578171 60.578353 L 39.429614 61.289166 L 11.867181 95.523448 Z M 67.867084 152.452923 L 48.398746 151.523351 L 50.422114 94.429651 L 67.210806 95.523448 Z M 67.867084 152.452923 " stroke="#d9d9d9" stroke-width="21.559999" stroke-opacity="1" stroke-miterlimit="4"/><g fill="#000000" fill-opacity="1"><g transform="translate(1577.256151, 2323.265561)"><g><path d="M 56.476562 19.765625 L 297.917969 -7.058594 L 313.449219 -223.085938 L 409.460938 -217.4375 L 416.523438 8.472656 L 686.203125 7.058594 L 641.019531 -862.695312 L 564.777344 -1023.65625 L 248.5 -1019.421875 L 74.832031 -803.394531 Z M 427.816406 -444.761719 L 304.980469 -450.410156 L 317.6875 -810.453125 L 423.582031 -803.394531 Z M 427.816406 -444.761719 "/></g></g></g><g clip-path="url(#e1988daf5f)"><path fill="#d9d9d9" d="M 2548.097656 1611.445312 L 2974.289062 1611.445312 L 2974.289062 2054.347656 L 2548.097656 2054.347656 Z M 2548.097656 1611.445312 " fill-opacity="1" fill-rule="nonzero"/></g><path stroke-linecap="butt" transform="matrix(6.303303, 0, 0, 6.303303, 2266.959984, 917.628922)" fill="none" stroke-linejoin="miter" d="M 34.945246 224.093807 L 88.046743 223.00001 L 103.468964 196.585909 L 103.468964 163.664182 L 69.234682 165.195498 L 63.601475 188.929953 L 48.617393 187.836156 L 49.711189 99.351426 L 67.210694 98.695148 L 69.234682 125.109249 L 107.734461 121.773325 L 106.640664 88.578305 L 92.968518 63.968812 L 25.976734 63.968812 L 10.992032 89.289117 L 8.968663 202.820239 Z M 34.945246 224.093807 " stroke="#d9d9d9" stroke-width="21.559999" stroke-opacity="1" stroke-miterlimit="4"/><g fill="#000000" fill-opacity="1"><g transform="translate(2266.959984, 2323.265561)"><g><path d="M 220.261719 7.058594 L 554.890625 0 L 652.316406 -166.609375 L 652.316406 -374.164062 L 436.289062 -364.28125 L 400.992188 -214.613281 L 306.390625 -221.675781 L 313.449219 -779.390625 L 423.582031 -783.625 L 436.289062 -617.019531 L 679.144531 -638.195312 L 672.082031 -847.164062 L 585.957031 -1002.476562 L 163.785156 -1002.476562 L 69.183594 -842.929688 L 56.476562 -127.074219 Z M 220.261719 7.058594 "/></g></g></g><path stroke-linecap="butt" transform="matrix(6.303303, 0, 0, 6.303303, 2900.223379, 917.628922)" fill="none" stroke-linejoin="miter" d="M 50.202977 224.804619 L 48.617127 157.374698 L 57.585638 157.593457 L 63.38307 162.078332 L 72.351582 223.00001 L 111.781552 219.664086 L 100.789052 149.281223 L 78.421688 126.913859 L 113.586161 66.21094 L 74.37495 62.164203 L 48.398367 107.883039 L 47.031277 62.601722 L 12.304941 61.507925 L 8.969017 223.656288 Z M 50.202977 224.804619 " stroke="#d9d9d9" stroke-width="21.559999" stroke-opacity="1" stroke-miterlimit="4"/><g fill="#000000" fill-opacity="1"><g transform="translate(2900.223379, 2323.265561)"><g><path d="M 316.273438 11.296875 L 306.390625 -413.699219 L 362.867188 -412.285156 L 399.578125 -384.046875 L 456.054688 0 L 704.558594 -21.179688 L 635.371094 -464.527344 L 494.179688 -605.722656 L 715.855469 -988.359375 L 468.765625 -1013.773438 L 304.980469 -725.738281 L 296.507812 -1010.949219 L 77.65625 -1018.007812 L 56.476562 4.234375 Z M 316.273438 11.296875 "/></g></g></g></svg>