<svg xmlns="http://www.w3.org/2000/svg" xmlns:xlink="http://www.w3.org/1999/xlink" width="2500" zoomAndPan="magnify" viewBox="0 0 1874.88 1874.999927" height="2500" preserveAspectRatio="xMidYMid meet" version="1.0"><defs><clipPath id="17e5a0f9b4"><path d="M 437.324219 82.890625 L 1437.246094 82.890625 L 1437.246094 1791.988281 L 437.324219 1791.988281 Z M 437.324219 82.890625 " clip-rule="nonzero"/></clipPath></defs><g clip-path="url(#17e5a0f9b4)"><path fill="#3b393d" d="M 821.820312 693.53125 C 814.652344 690.796875 799.269531 718.140625 798.578125 719.503906 C 792.4375 730.105469 767.136719 774.878906 786.960938 807.699219 C 793.796875 818.980469 806.441406 829.917969 814.304688 827.179688 C 816.691406 826.152344 820.457031 823.082031 823.527344 784.449219 C 824.902344 765.652344 824.210938 763.941406 824.902344 726.007812 C 824.902344 702.078125 825.238281 694.546875 821.820312 693.53125 Z M 853.257812 1062.011719 C 849.160156 1029.539062 827.628906 963.5625 820.457031 959.464844 C 813.277344 955.710938 811.914062 1014.15625 826.945312 1032.277344 C 841.992188 1050.394531 834.128906 1054.496094 844.382812 1121.832031 C 854.632812 1189.171875 890.851562 1180.289062 890.851562 1180.289062 C 901.105469 1180.289062 857.371094 1094.488281 853.257812 1062.011719 Z M 1028.933594 1308.808594 C 1042.601562 1303.683594 1039.867188 1164.910156 1039.867188 1164.910156 C 1039.867188 1164.910156 1037.476562 1087.996094 1032.003906 1079.105469 C 1026.542969 1069.878906 1018 1098.585938 1018 1098.585938 C 1018 1098.585938 1015.261719 1313.9375 1028.933594 1308.808594 Z M 1025.847656 884.957031 C 1025.847656 884.957031 1015.261719 881.539062 1012.527344 905.117188 C 1009.789062 928.367188 1020.722656 987.492188 1019.015625 1002.191406 C 1017.652344 1016.894531 1018.679688 1062.011719 1018.679688 1062.011719 C 1018.679688 1062.011719 1027.222656 1079.105469 1037.128906 1025.785156 C 1047.050781 972.457031 1078.140625 967.675781 1062.082031 929.726562 C 1046.355469 892.125 1043.285156 884.609375 1025.847656 884.957031 Z M 1059.691406 791.96875 C 1061.054688 767.359375 1060.71875 731.132812 1059.691406 699.339844 C 1058.664062 667.546875 1054.21875 707.539062 1045.339844 745.488281 C 1036.101562 783.089844 1020.722656 776.585938 1006.371094 811.796875 C 992.019531 847.007812 1037.8125 865.128906 1037.8125 865.128906 C 1052.855469 873.328125 1057.984375 816.589844 1059.691406 791.96875 Z M 1094.546875 1661.921875 C 1107.539062 1663.296875 1110.273438 1642.441406 1105.828125 1629.449219 C 1101.382812 1616.457031 1074.042969 1586.71875 1076.433594 1601.765625 C 1078.820312 1616.800781 1051.828125 1638.675781 1051.828125 1638.675781 C 1029.613281 1663.628906 1081.558594 1660.558594 1094.546875 1661.921875 Z M 1141.367188 1614.066406 C 1155.71875 1598.683594 1152.996094 1595.613281 1152.996094 1595.613281 C 1152.996094 1595.613281 1121.890625 1556.636719 1111.984375 1538.527344 C 1102.066406 1520.410156 1090.785156 1483.835938 1075.40625 1465.035156 C 1060.023438 1446.234375 1061.054688 1506.054688 1067.554688 1528.273438 C 1074.042969 1550.492188 1077.808594 1560.746094 1085.65625 1579.203125 C 1093.519531 1597.65625 1120.863281 1630.824219 1120.863281 1630.824219 C 1135.210938 1649.957031 1127.015625 1629.449219 1141.367188 1614.066406 Z M 1230.574219 1686.878906 C 1249.703125 1680.722656 1242.535156 1661.921875 1241.160156 1642.441406 C 1239.796875 1622.957031 1219.292969 1632.183594 1198.4375 1632.183594 C 1177.597656 1632.183594 1169.734375 1610.3125 1158.121094 1614.066406 C 1146.492188 1617.832031 1141.367188 1650.636719 1141.367188 1650.636719 C 1162.21875 1674.914062 1211.429688 1693.03125 1230.574219 1686.878906 Z M 1168.027344 1516.644531 C 1164.957031 1495.800781 1204.941406 1486.5625 1225.445312 1473.582031 C 1246.285156 1460.589844 1194.339844 1444.859375 1179.640625 1446.917969 C 1164.957031 1448.960938 1142.394531 1421.613281 1125.652344 1421.613281 C 1108.898438 1421.613281 1099.675781 1464.339844 1109.929688 1486.5625 C 1120.179688 1508.78125 1130.78125 1519.035156 1135.90625 1547.410156 C 1141.035156 1575.78125 1160.511719 1578.519531 1160.511719 1578.519531 C 1170.417969 1583.300781 1171.097656 1537.152344 1168.027344 1516.644531 Z M 922.988281 1613.730469 C 922.988281 1613.730469 953.398438 1582.621094 937.339844 1570.308594 C 921.613281 1558.011719 928.113281 1543.65625 922.988281 1524.160156 C 917.859375 1504.679688 930.851562 1486.5625 903.507812 1486.5625 C 876.167969 1486.5625 825.585938 1517.671875 832.074219 1532.027344 C 838.574219 1546.378906 864.539062 1573.726562 864.539062 1595.613281 C 864.539062 1617.484375 922.988281 1613.730469 922.988281 1613.730469 Z M 954.425781 1672.175781 C 983.128906 1682.429688 1004.664062 1665.6875 1025.847656 1656.460938 C 1047.050781 1647.21875 1006.039062 1625.347656 1037.476562 1622.957031 C 1068.917969 1620.222656 1064.472656 1564.5 1051.480469 1547.753906 C 1038.503906 1530.664062 1051.480469 1513.90625 1051.480469 1481.433594 C 1051.480469 1448.960938 968.445312 1471.179688 941.101562 1493.0625 C 914.09375 1515.28125 957.84375 1555.273438 954.078125 1581.257812 C 950.328125 1607.230469 927.765625 1634.574219 927.765625 1634.574219 C 927.765625 1634.574219 925.722656 1661.921875 954.425781 1672.175781 Z M 877.875 1761.730469 C 883.003906 1786.355469 1025.847656 1794.207031 1037.8125 1791.480469 C 1049.773438 1788.746094 1005.007812 1716.28125 980.40625 1694.0625 C 955.789062 1671.84375 915.46875 1686.53125 915.46875 1686.53125 C 916.832031 1663.296875 901.105469 1632.867188 877.875 1623.984375 C 854.632812 1614.746094 872.75 1653.722656 823.195312 1686.53125 C 773.640625 1719.351562 799.953125 1726.535156 807.46875 1747.378906 C 815.332031 1768.234375 872.402344 1737.125 872.402344 1737.125 C 872.402344 1737.125 872.402344 1737.125 877.875 1761.730469 Z M 1038.503906 1751.476562 C 1063.441406 1775.070312 1097.964844 1774.042969 1117.789062 1773.695312 C 1150.257812 1772.679688 1204.941406 1761.730469 1210.066406 1734.734375 C 1212.109375 1723.796875 1205.273438 1713.195312 1202.203125 1708.75 C 1191.949219 1693.03125 1180.667969 1696.449219 1156.746094 1679.011719 C 1138.296875 1665.339844 1133.503906 1655.085938 1124.277344 1656.792969 C 1115.734375 1658.503906 1116.414062 1668.078125 1106.164062 1673.550781 C 1094.203125 1680.039062 1086.003906 1671.496094 1063.441406 1670.8125 C 1056.609375 1670.46875 1024.488281 1669.4375 1015.261719 1686.53125 C 1011.496094 1693.367188 1013.207031 1700.898438 1015.261719 1709.777344 C 1015.941406 1713.542969 1021.070312 1734.734375 1038.503906 1751.476562 Z M 1199.464844 1612.703125 C 1203.230469 1614.746094 1214.164062 1614.066406 1235.699219 1612.703125 C 1265.082031 1610.992188 1268.847656 1609.285156 1271.917969 1606.199219 C 1280.128906 1598 1272.945312 1589.457031 1278.417969 1569.976562 C 1285.253906 1545.367188 1300.285156 1543.65625 1301.660156 1524.507812 C 1302.675781 1511.515625 1297.214844 1496.480469 1285.933594 1488.269531 C 1263.039062 1471.179688 1227.15625 1492.382812 1221 1496.132812 C 1215.527344 1499.554688 1187.503906 1515.964844 1180.667969 1549.464844 C 1176.917969 1571.003906 1181.351562 1603.128906 1199.464844 1612.703125 Z M 768.847656 1680.039062 C 810.539062 1706.023438 835.15625 1651.332031 849.507812 1615.09375 C 863.859375 1578.855469 827.292969 1545.019531 783.199219 1522.800781 C 739.117188 1500.582031 753.46875 1540.917969 713.148438 1562.789062 C 672.820312 1584.675781 671.445312 1611.328125 671.445312 1635.949219 C 671.445312 1660.558594 723.402344 1653.375 727.152344 1654.054688 C 759.621094 1661.921875 727.152344 1654.054688 768.847656 1680.039062 Z M 575.417969 1346.078125 C 592.160156 1445.886719 606.507812 1464.339844 600.019531 1481.433594 C 593.535156 1498.523438 580.542969 1528.273438 622.582031 1555.273438 C 664.609375 1582.273438 711.441406 1527.925781 732.28125 1500.582031 C 753.132812 1473.234375 724.417969 1458.878906 706.316406 1446.570312 C 688.199219 1434.273438 665.984375 1351.203125 657.09375 1318.730469 C 647.867188 1286.257812 655.730469 1213.445312 672.820312 1193.964844 C 689.90625 1174.480469 679.308594 1160.113281 659.828125 1138.242188 C 640.351562 1116.371094 568.914062 1139.605469 544.3125 1146.109375 C 519.707031 1152.597656 544.3125 1194.296875 544.3125 1194.296875 C 566.191406 1202.164062 558.328125 1246.601562 575.417969 1346.078125 Z M 602.410156 1004.929688 C 602.410156 1004.929688 550.464844 1014.15625 542.601562 1042.53125 C 534.738281 1070.90625 528.25 1108.839844 549.105469 1115.34375 C 569.945312 1121.832031 620.527344 1131.058594 629.417969 1100.988281 C 638.296875 1070.90625 656.757812 1046.296875 629.417969 1025.785156 C 602.078125 1005.277344 628.390625 997.414062 602.410156 1004.929688 Z M 1072.332031 967.675781 C 1042.601562 992.617188 1057.984375 1186.78125 1059.34375 1241.472656 C 1060.71875 1296.164062 1032.003906 1311.546875 1038.503906 1362.140625 C 1044.992188 1412.734375 1052.855469 1433.578125 1069.597656 1445.207031 C 1086.351562 1456.824219 1100.703125 1409.996094 1118.820312 1402.480469 C 1136.921875 1394.960938 1130.433594 1360.777344 1130.085938 1345.394531 C 1129.753906 1330.015625 1127.695312 1297.191406 1130.085938 1259.59375 C 1132.488281 1221.992188 1133.171875 1093.457031 1157.773438 1037.75 C 1182.378906 982.03125 1160.511719 996.039062 1177.253906 957.421875 C 1194.007812 918.445312 1164.261719 887.347656 1120.179688 885.636719 C 1076.097656 883.929688 1079.851562 946.820312 1079.851562 946.820312 C 1079.851562 946.820312 1102.410156 942.71875 1072.332031 967.675781 Z M 1060.023438 873.328125 C 1064.136719 880.511719 1090.785156 861.363281 1122.917969 863.753906 C 1154.355469 865.808594 1175.542969 887.347656 1195.714844 878.800781 C 1197.757812 877.773438 1199.8125 877.089844 1200.84375 875.035156 C 1205.621094 864.445312 1173.835938 841.199219 1183.058594 828.886719 C 1193.660156 814.535156 1188.1875 770.445312 1182.726562 723.601562 C 1177.597656 676.773438 1184.085938 691.128906 1182.726562 650.804688 C 1181.351562 610.464844 1103.441406 637.8125 1082.585938 641.5625 C 1061.398438 645.328125 1075.070312 755.742188 1075.070312 785.828125 C 1075.070312 815.898438 1073.695312 837.78125 1060.71875 867.519531 C 1059.34375 870.589844 1059.34375 871.964844 1060.023438 873.328125 Z M 1015.261719 1446.234375 C 1044.992188 1442.46875 1003.632812 1335.824219 999.535156 1296.847656 C 995.4375 1257.882812 1003.632812 987.839844 999.535156 941.011719 C 995.4375 894.183594 920.597656 878.800781 904.871094 874.703125 C 889.492188 870.9375 890.519531 869.574219 856.675781 929.394531 C 822.847656 989.199219 911.359375 1162.851562 924.015625 1213.445312 C 936.992188 1264.039062 914.777344 1364.195312 912.054688 1412.054688 C 908.96875 1460.242188 960.234375 1455.460938 960.234375 1455.460938 C 981.417969 1429.476562 985.53125 1450.335938 1015.261719 1446.234375 Z M 925.375 853.84375 C 954.773438 859.320312 967.070312 874.007812 988.253906 869.90625 C 1015.597656 864.78125 986.894531 832.308594 979.03125 801.207031 C 971.167969 770.097656 975.277344 661.058594 954.425781 636.4375 C 933.921875 611.828125 891.882812 613.203125 851.550781 641.5625 C 811.234375 669.9375 877.875 794.707031 842.671875 828.554688 C 827.972656 842.5625 824.210938 854.527344 825.585938 864.445312 C 827.628906 878.453125 840.28125 892.808594 850.535156 891.445312 C 862.148438 890.082031 860.441406 869.90625 877.875 858.625 C 893.257812 847.6875 913.414062 851.789062 925.375 853.84375 Z M 724.417969 1211.390625 C 724.417969 1237.375 758.261719 1404.867188 757.230469 1447.597656 C 756.203125 1490.324219 766.125 1489.296875 790.726562 1507.417969 C 815.332031 1525.535156 826.945312 1507.417969 847.800781 1484.171875 C 868.636719 1460.921875 902.480469 1467.425781 903.507812 1446.570312 C 904.871094 1425.726562 861.804688 1368.628906 846.425781 1332.402344 C 830.710938 1296.164062 789.351562 1104.058594 791.742188 1058.59375 C 794.480469 1013.128906 773.640625 945.792969 765.777344 904.089844 C 757.914062 862.390625 692.976562 898.964844 640.003906 930.074219 C 587.03125 961.171875 669.734375 1042.878906 669.734375 1042.878906 C 669.734375 1042.878906 724.417969 1185.417969 724.417969 1211.390625 Z M 1224.417969 1216.515625 C 1228.183594 1272.238281 1188.1875 1289.328125 1155.71875 1338.558594 C 1123.25 1387.777344 1152.996094 1416.484375 1183.058594 1417.859375 C 1213.136719 1419.222656 1228.515625 1448.960938 1245.953125 1455.460938 C 1263.375 1461.953125 1284.226562 1412.734375 1275.335938 1371.035156 C 1266.109375 1329.320312 1292.089844 1260.621094 1287.296875 1211.390625 C 1282.519531 1162.171875 1326.945312 1082.871094 1343.007812 1046.628906 C 1359.066406 1010.40625 1337.199219 989.546875 1330.363281 962.203125 C 1323.527344 934.855469 1256.886719 949.210938 1237.40625 957.074219 C 1217.929688 964.9375 1228.183594 1005.277344 1228.183594 1005.277344 C 1246.285156 1010.058594 1220.320312 1160.808594 1224.417969 1216.515625 Z M 1299.605469 833.683594 C 1285.253906 892.125 1281.488281 843.9375 1251.410156 884.261719 C 1221.347656 924.601562 1312.25 931.101562 1342.671875 929.726562 C 1373.085938 928.367188 1342.324219 890.765625 1360.441406 891.445312 C 1378.558594 891.792969 1376.15625 837.78125 1376.15625 805.308594 C 1376.15625 772.835938 1389.144531 700.023438 1408.621094 673.023438 C 1428.113281 645.675781 1399.398438 640.550781 1379.917969 641.910156 C 1360.441406 643.273438 1346.089844 625.167969 1329.335938 626.183594 C 1312.59375 627.558594 1329.335938 673.023438 1329.335938 673.023438 C 1340.964844 688.058594 1313.957031 775.222656 1299.605469 833.683594 Z M 1352.230469 547.910156 C 1321.820312 602.601562 1373.765625 621.75 1406.234375 619.34375 C 1438.699219 616.621094 1425.710938 570.128906 1415.457031 537.652344 C 1405.203125 505.179688 1414.097656 466.21875 1431.183594 412.886719 C 1447.925781 359.554688 1424.695312 359.554688 1403.84375 376.648438 C 1382.992188 393.738281 1393.589844 379.382812 1370.015625 384.511719 C 1346.773438 389.640625 1363.511719 449.460938 1363.511719 449.460938 C 1363.511719 449.460938 1382.65625 493.5625 1352.230469 547.910156 Z M 1428.113281 346.910156 C 1455.453125 337.683594 1412.386719 274.097656 1416.484375 260.09375 C 1420.25 245.722656 1417.859375 235.46875 1416.484375 193.769531 C 1415.125 152.070312 1376.15625 169.160156 1357.359375 193.769531 C 1338.5625 218.378906 1377.53125 267.609375 1361.804688 309.308594 C 1346.089844 351.011719 1376.15625 362.640625 1376.15625 362.640625 C 1393.9375 384.164062 1400.773438 355.804688 1428.113281 346.910156 Z M 552.855469 599.863281 C 560.039062 630.976562 572.679688 697.285156 579.167969 728.398438 C 585.671875 759.496094 593.535156 804.960938 592.160156 856.914062 C 590.796875 908.882812 628.390625 892.125 652.996094 869.90625 C 677.597656 847.6875 726.820312 863.417969 750.398438 853.164062 C 773.640625 842.910156 732.28125 780.351562 694.6875 753.351562 C 657.09375 726.007812 659.484375 642.941406 645.476562 614.566406 C 631.128906 585.855469 630.097656 549.617188 642.742188 530.136719 C 655.730469 510.65625 616.761719 499.023438 587.03125 515.78125 C 557.300781 532.527344 557.300781 520.910156 532.351562 531.5 C 507.398438 542.101562 541.574219 562.609375 541.574219 562.609375 C 541.574219 562.609375 545.339844 568.765625 552.855469 599.863281 Z M 469.472656 311.699219 C 472.542969 317.855469 485.183594 315.117188 487.585938 321.621094 C 488.949219 325.039062 486.558594 328.792969 485.53125 330.847656 C 479.375 344.171875 493.394531 362.972656 501.257812 376.648438 C 503.648438 380.746094 528.933594 420.402344 520.734375 461.089844 C 514.234375 493.5625 516.96875 503.816406 545.339844 503.816406 C 573.707031 503.816406 595.921875 482.960938 624.625 482.960938 C 653.339844 482.960938 626 436.132812 594.894531 409.121094 C 574.738281 391.347656 564.484375 325.039062 561.066406 313.074219 C 560.039062 309.65625 558.664062 303.5 553.882812 300.765625 C 552.175781 299.734375 550.464844 299.402344 549.4375 298.027344 C 549.105469 297.347656 548.410156 295.289062 551.148438 288.453125 C 553.882812 282.3125 555.59375 281.617188 554.910156 280.601562 C 552.855469 276.488281 537.824219 279.226562 512.871094 288.453125 C 477.667969 301.445312 473.917969 297.691406 473.917969 297.691406 C 468.441406 304.863281 468.097656 309.308594 469.472656 311.699219 Z M 468.789062 266.234375 C 468.789062 266.234375 442.8125 262.480469 463.664062 238.886719 C 484.503906 215.308594 432.558594 157.195312 437.683594 128.488281 C 442.8125 99.765625 486.894531 67.640625 494.757812 90.886719 C 502.621094 114.121094 515.609375 218.042969 543.976562 233.761719 C 572.332031 249.488281 507.746094 280.601562 468.789062 266.234375 " fill-opacity="1" fill-rule="nonzero"/></g><path fill="#ffffff" d="M 614.371094 1319.066406 C 616.082031 1346.078125 621.890625 1373.078125 625.652344 1399.742188 C 627.710938 1415.125 630.433594 1430.507812 630.097656 1445.886719 C 629.753906 1457.851562 628.390625 1468.789062 632.835938 1480.417969 C 634.542969 1484.851562 641.378906 1482.808594 639.671875 1478.363281 C 635.226562 1464.339844 637.617188 1451.363281 636.933594 1436.996094 C 636.253906 1425.03125 633.851562 1413.066406 631.808594 1401.105469 C 627.015625 1373.757812 624.292969 1345.394531 617.457031 1318.382812 C 617.109375 1317.023438 614.371094 1317.355469 614.371094 1319.066406 Z M 576.097656 1155.335938 C 568.582031 1166.269531 570.289062 1178.914062 574.390625 1191.226562 C 581.222656 1212.417969 590.117188 1229.175781 590.796875 1252.410156 C 591.128906 1272.585938 589.769531 1292.414062 592.160156 1312.226562 C 594.546875 1332.058594 598.992188 1351.203125 603.4375 1370.339844 C 608.566406 1391.875 614.039062 1413.414062 616.429688 1435.632812 C 618.472656 1454.085938 616.082031 1472.554688 618.136719 1490.671875 C 620.875 1512.890625 641.714844 1540.917969 666.316406 1525.871094 C 671.109375 1523.148438 667.011719 1516.308594 661.886719 1518.351562 C 634.878906 1531.34375 625.652344 1496.480469 625.304688 1477.679688 C 624.972656 1461.269531 625.304688 1445.542969 622.917969 1429.476562 C 618.816406 1399.742188 609.59375 1370.6875 603.4375 1341.285156 C 600.019531 1324.539062 597.285156 1307.796875 596.949219 1290.703125 C 596.605469 1274.972656 598.3125 1259.246094 597.285156 1243.183594 C 595.242188 1214.472656 570.289062 1185.417969 580.878906 1157.390625 C 582.585938 1154.652344 577.808594 1152.945312 576.097656 1155.335938 Z M 798.578125 1618.511719 C 782.515625 1608.605469 758.59375 1611.675781 751.425781 1591.164062 C 750.398438 1588.09375 745.269531 1588.429688 745.269531 1591.847656 C 745.617188 1616.800781 781.488281 1614.066406 796.867188 1621.582031 C 798.925781 1622.277344 800.632812 1619.539062 798.578125 1618.511719 Z M 1255.523438 1520.742188 C 1248.339844 1527.578125 1239.449219 1538.527344 1238.769531 1548.785156 C 1238.4375 1551.507812 1242.1875 1552.203125 1243.5625 1550.144531 C 1246.285156 1546.046875 1247.660156 1540.570312 1250.050781 1536.125 C 1252.441406 1531.691406 1255.523438 1527.246094 1258.59375 1523.148438 C 1260.304688 1521.4375 1257.234375 1519.382812 1255.523438 1520.742188 Z M 1241.851562 1595.945312 C 1252.441406 1599.03125 1258.59375 1590.484375 1260.984375 1580.910156 C 1263.039062 1572.363281 1262.691406 1563.472656 1265.777344 1555.273438 C 1270.554688 1541.601562 1278.417969 1533.734375 1290.378906 1525.535156 C 1293.453125 1523.480469 1290.714844 1518.351562 1287.296875 1520.410156 C 1277.390625 1526.566406 1269.527344 1535.109375 1264.75 1545.699219 C 1259.957031 1555.953125 1259.273438 1595.265625 1242.535156 1593.554688 C 1240.824219 1592.875 1240.476562 1595.265625 1241.851562 1595.945312 Z M 790.03125 1660.210938 C 782.515625 1648.246094 772.265625 1640.730469 758.941406 1635.949219 C 751.425781 1633.546875 746.296875 1633.210938 739.117188 1627.738281 C 737.074219 1626.027344 735.363281 1623.640625 732.960938 1622.277344 C 731.253906 1621.25 728.53125 1620.902344 726.820312 1619.875 C 712.804688 1611.675781 716.566406 1601.765625 722.375 1592.195312 C 724.417969 1589.109375 719.636719 1585.355469 717.25 1588.09375 C 707.328125 1599.363281 702.203125 1617.832031 718.609375 1625.347656 C 724.765625 1628.085938 730.238281 1629.792969 735.699219 1633.546875 C 738.78125 1635.601562 741.503906 1637.3125 745.269531 1638.339844 C 751.757812 1640.382812 758.59375 1640.730469 765.09375 1643.121094 C 774.320312 1646.886719 781.488281 1653.042969 787.308594 1660.894531 C 788.671875 1662.601562 791.0625 1661.585938 790.03125 1660.210938 Z M 986.210938 1770.625 C 966.734375 1752.851562 938.367188 1756.605469 917.859375 1741.222656 C 907.261719 1733.371094 898.382812 1723.796875 886.074219 1718.667969 C 876.847656 1714.90625 844.035156 1715.585938 840.964844 1707.039062 C 839.589844 1703.96875 834.460938 1703.96875 834.808594 1707.734375 C 835.15625 1716.613281 840.617188 1720.710938 849.507812 1721.742188 C 857.703125 1722.769531 865.566406 1720.710938 874.113281 1722.769531 C 885.046875 1725.160156 893.9375 1730.96875 902.480469 1737.804688 C 912.734375 1746.015625 922.304688 1753.882812 935.28125 1757.300781 C 952.371094 1762.078125 970.832031 1760.371094 985.53125 1771.652344 C 985.867188 1772.679688 987.242188 1771.304688 986.210938 1770.625 Z M 1184.085938 1719.351562 C 1188.878906 1721.742188 1169.054688 1739.511719 1168.027344 1740.207031 C 1161.191406 1743.960938 1154.703125 1744.640625 1147.175781 1745.335938 C 1133.503906 1746.351562 1119.5 1753.535156 1106.164062 1748.40625 C 1090.101562 1742.597656 1076.78125 1726.867188 1058.316406 1729.953125 C 1054.898438 1730.285156 1056.273438 1735.082031 1059.011719 1735.414062 C 1075.40625 1737.125 1086.003906 1746.695312 1100.355469 1752.851562 C 1117.445312 1760.371094 1127.015625 1751.476562 1144.449219 1749.769531 C 1156.746094 1748.753906 1165.972656 1747.378906 1176.222656 1739.859375 C 1182.378906 1735.082031 1192.980469 1725.839844 1189.5625 1717.292969 C 1189.214844 1716.28125 1188.1875 1715.25 1186.824219 1715.25 C 1186.144531 1715.25 1185.796875 1715.25 1185.117188 1715.25 C 1183.058594 1715.25 1181.699219 1718.324219 1184.085938 1719.351562 Z M 1391.199219 189.324219 C 1406.234375 215.65625 1384.699219 239.582031 1389.824219 266.582031 C 1393.9375 289.480469 1409.652344 308.28125 1412.734375 331.875 C 1413.414062 335.628906 1419.570312 334.601562 1419.222656 330.847656 C 1418.195312 303.835938 1394.953125 282.992188 1394.617188 255.980469 C 1394.617188 234.109375 1414.777344 205.050781 1394.269531 186.597656 C 1392.5625 185.222656 1389.824219 187.28125 1391.199219 189.324219 Z M 463.664062 105.574219 C 475.960938 116.859375 476.988281 144.886719 480.058594 160.613281 C 483.476562 178.386719 486.558594 196.507812 491.003906 213.945312 C 492.019531 218.378906 498.855469 216.667969 497.839844 211.890625 C 493.046875 188.640625 486.210938 165.742188 481.085938 142.496094 C 478.015625 128.820312 478.015625 111.050781 466.054688 102.503906 C 464.34375 101.140625 461.953125 104.214844 463.664062 105.574219 Z M 1420.25 390.320312 C 1405.550781 418.695312 1399.746094 447.417969 1397.355469 479.195312 C 1394.617188 516.117188 1391.535156 552.6875 1389.492188 589.609375 C 1389.144531 594.054688 1395.980469 594.054688 1396.328125 589.609375 C 1400.425781 524.660156 1393.242188 451.847656 1422.988281 392.03125 C 1424.347656 389.988281 1421.277344 388.277344 1420.25 390.320312 Z M 520.054688 289.148438 C 521.417969 297.347656 520.054688 305.890625 523.472656 313.410156 C 528.597656 325.375 536.796875 331.875 538.15625 345.882812 C 539.867188 362.972656 537.140625 380.066406 540.894531 397.15625 C 547.730469 428.617188 567.207031 457.671875 594.546875 475.097656 C 598.3125 477.488281 601.382812 471.679688 597.964844 469.289062 C 567.554688 447.070312 547.046875 414.59375 544.992188 376.3125 C 544.3125 361.613281 546.703125 346.230469 541.574219 332.210938 C 539.53125 326.402344 535.433594 321.953125 532.351562 316.492188 C 527.222656 307.601562 528.25 297.347656 524.832031 288.121094 C 523.804688 284.699219 519.707031 286.0625 520.054688 289.148438 Z M 1384.367188 679.859375 C 1360.441406 706.175781 1362.152344 747.53125 1360.09375 780.699219 C 1358.386719 803.597656 1355.316406 825.46875 1344.382812 845.980469 C 1339.9375 854.191406 1334.808594 861.710938 1331.390625 870.253906 C 1329.003906 876.746094 1328.65625 900.339844 1321.472656 901.019531 C 1317.375 901.355469 1317.375 907.175781 1321.472656 907.507812 C 1326.945312 907.855469 1329.683594 906.480469 1332.753906 902.046875 C 1334.808594 898.964844 1334.460938 896.574219 1334.808594 892.472656 C 1335.492188 883.582031 1335.492188 876.410156 1339.253906 867.863281 C 1348.132812 848.71875 1358.386719 833.335938 1362.484375 812.144531 C 1366.25 792.316406 1366.25 772.152344 1367.609375 751.976562 C 1369.320312 726.007812 1374.792969 704.800781 1386.753906 681.570312 C 1387.4375 680.195312 1385.394531 678.484375 1384.367188 679.859375 Z M 600.019531 542.433594 C 608.21875 557.136719 604.46875 572.515625 602.757812 588.246094 C 601.382812 602.253906 600.703125 616.621094 601.730469 630.976562 C 603.4375 655.585938 610.621094 678.832031 620.179688 701.382812 C 630.433594 724.976562 642.0625 751.296875 658.121094 771.457031 C 673.152344 790.605469 695.035156 803.25 704.605469 826.5 C 706.316406 830.945312 713.832031 828.886719 711.773438 824.441406 C 703.910156 804.960938 688.53125 792.664062 673.847656 777.960938 C 653.675781 757.453125 641.03125 729.078125 629.070312 703.441406 C 615.054688 673.355469 607.203125 642.941406 607.539062 609.785156 C 607.882812 587.566406 617.457031 560.21875 603.4375 540.390625 C 602.078125 538.335938 598.660156 540.042969 600.019531 542.433594 Z M 741.851562 1150.554688 C 747.660156 1194.992188 751.078125 1244.890625 767.484375 1286.589844 C 768.511719 1289.328125 773.972656 1289.328125 773.292969 1285.910156 C 770.554688 1264.039062 763.386719 1242.5 758.59375 1220.960938 C 753.132812 1197.382812 749.035156 1173.789062 745.269531 1149.859375 C 744.921875 1148.152344 741.503906 1148.84375 741.851562 1150.554688 Z M 705.96875 919.472656 C 725.445312 910.59375 742.535156 927.335938 746.632812 945.457031 C 749.714844 959.128906 746.632812 973.484375 744.921875 986.8125 C 741.851562 1010.738281 741.851562 1033.984375 744.921875 1057.914062 C 750.742188 1103.03125 765.09375 1146.441406 777.390625 1190.199219 C 783.546875 1212.417969 789.699219 1234.984375 793.796875 1257.882812 C 797.894531 1280.78125 799.269531 1303.683594 803.703125 1326.597656 C 807.46875 1347.105469 813.957031 1367.613281 825.917969 1385.039062 C 838.574219 1403.507812 854.96875 1418.195312 866.25 1437.691406 C 868.984375 1442.46875 876.167969 1438.371094 873.765625 1433.242188 C 861.804688 1409.996094 840.28125 1393.933594 827.292969 1371.367188 C 813.621094 1347.105469 810.207031 1318.730469 806.789062 1291.71875 C 800.285156 1240.445312 785.601562 1191.574219 771.582031 1142.007812 C 756.203125 1088.679688 746.632812 1036.722656 751.425781 981.347656 C 752.785156 963.230469 754.84375 941.34375 741.503906 926.65625 C 731.601562 915.722656 717.582031 909.566406 703.910156 915.722656 C 700.492188 916.402344 702.898438 920.847656 705.96875 919.472656 Z M 1267.820312 1106.117188 C 1265.429688 1118.761719 1260.984375 1132.769531 1261.332031 1146.109375 C 1261.332031 1148.152344 1264.066406 1148.496094 1264.75 1146.441406 C 1268.847656 1134.144531 1269.195312 1119.441406 1270.554688 1106.449219 C 1270.554688 1105.089844 1268.167969 1104.742188 1267.820312 1106.117188 Z M 1286.964844 985.101562 C 1304.386719 983.738281 1311.914062 1003.222656 1308.148438 1017.574219 C 1305.761719 1027.496094 1299.605469 1036.042969 1295.839844 1044.921875 C 1289.351562 1059.96875 1289.003906 1074.65625 1289.003906 1090.734375 C 1289.003906 1131.058594 1266.792969 1161.488281 1257.234375 1198.742188 C 1238.4375 1270.195312 1278.417969 1348.46875 1242.867188 1416.484375 C 1240.824219 1420.25 1246.632812 1424.015625 1248.6875 1419.902344 C 1268.167969 1382.996094 1265.777344 1341.976562 1262.011719 1301.640625 C 1259.957031 1279.421875 1257.566406 1257.203125 1258.59375 1234.636719 C 1259.621094 1208.664062 1267.484375 1185.75 1277.390625 1162.171875 C 1284.90625 1144.734375 1292.089844 1127.308594 1293.796875 1108.160156 C 1294.828125 1096.542969 1293.117188 1084.578125 1293.796875 1072.949219 C 1294.480469 1057.914062 1299.953125 1046.628906 1306.441406 1033.304688 C 1312.25 1020.992188 1317.039062 1008.347656 1310.886719 995.355469 C 1306.09375 985.449219 1297.550781 978.613281 1286.617188 982.363281 C 1285.253906 983.058594 1285.253906 985.101562 1286.964844 985.101562 Z M 1137.617188 695.574219 C 1136.921875 724.976562 1131.796875 758.132812 1136.921875 787.1875 C 1137.269531 789.246094 1140.6875 789.246094 1141.035156 787.1875 C 1146.160156 758.132812 1141.035156 724.976562 1140.339844 695.574219 C 1140.339844 693.53125 1137.617188 693.53125 1137.617188 695.574219 Z M 919.222656 685.667969 C 916.484375 718.476562 915.125 753.6875 917.859375 786.507812 C 918.195312 790.953125 924.695312 790.953125 924.695312 786.507812 C 924.015625 753.003906 921.957031 719.167969 921.277344 685.667969 C 921.613281 684.292969 919.222656 684.292969 919.222656 685.667969 Z M 902.816406 637.8125 C 956.816406 631.308594 933.238281 714.375 936.65625 743.777344 C 940.410156 775.570312 950.660156 809.753906 965.359375 838.117188 C 967.070312 841.535156 972.542969 839.144531 971.515625 835.390625 C 965.359375 813.171875 954.773438 792.664062 949.300781 770.097656 C 942.464844 743.777344 943.144531 719.503906 944.855469 692.839844 C 946.5625 668.910156 936.308594 625.167969 902.132812 635.074219 C 901.105469 635.753906 901.105469 638.144531 902.816406 637.8125 Z M 1135.558594 649.09375 C 1163.582031 652.167969 1154.703125 698.992188 1154.703125 717.113281 C 1154.703125 732.496094 1155.039062 747.878906 1156.066406 763.261719 C 1157.773438 794.371094 1161.191406 825.136719 1165.972656 855.902344 C 1166.664062 861.027344 1174.515625 858.625 1173.5 853.84375 C 1166.320312 808.378906 1161.539062 763.261719 1159.832031 717.460938 C 1159.136719 697.285156 1168.027344 645.675781 1135.558594 645.328125 C 1132.824219 644.984375 1132.824219 648.746094 1135.558594 649.09375 Z M 1137.617188 902.730469 C 1183.40625 923.917969 1151.621094 979.640625 1138.628906 1011.085938 C 1122.917969 1049.714844 1114.707031 1091.414062 1108.898438 1132.769531 C 1096.9375 1214.808594 1096.257812 1297.539062 1104.800781 1379.914062 C 1105.148438 1385.039062 1113.34375 1385.039062 1112.664062 1379.914062 C 1102.066406 1285.578125 1104.800781 1189.171875 1121.890625 1096.195312 C 1125.988281 1073.976562 1131.113281 1052.105469 1138.296875 1030.914062 C 1145.132812 1010.738281 1155.039062 991.605469 1161.191406 971.09375 C 1169.054688 945.109375 1167.347656 912.300781 1140.339844 898.628906 C 1137.269531 896.921875 1134.53125 901.355469 1137.617188 902.730469 Z M 919.902344 923.917969 C 917.511719 923.917969 917.511719 920.152344 919.902344 920.152344 C 949.300781 918.792969 968.097656 945.109375 971.859375 972.109375 C 974.933594 994.328125 969.804688 1016.894531 967.75 1039.113281 C 965.359375 1063.386719 964.679688 1087.316406 964.679688 1111.578125 C 965.359375 1211.390625 984.835938 1308.476562 1001.925781 1406.578125 C 1002.953125 1411.359375 995.4375 1413.761719 994.410156 1408.632812 C 978.003906 1326.25 963.996094 1241.820312 959.550781 1157.726562 C 957.164062 1114.664062 958.191406 1071.933594 963.316406 1029.207031 C 967.75 993.648438 975.613281 922.558594 919.902344 923.917969 " fill-opacity="1" fill-rule="nonzero"/></svg>