<svg xmlns="http://www.w3.org/2000/svg" xmlns:xlink="http://www.w3.org/1999/xlink" width="2500" zoomAndPan="magnify" viewBox="0 0 1874.88 1874.999927" height="2500" preserveAspectRatio="xMidYMid meet" version="1.0"><defs><g/><clipPath id="e89b27f247"><path d="M 187.488281 187.546875 L 1716.855469 187.546875 L 1716.855469 1716.914062 L 187.488281 1716.914062 Z M 187.488281 187.546875 " clip-rule="nonzero"/></clipPath><clipPath id="82ffee19dc"><path d="M 952.171875 187.546875 C 529.847656 187.546875 187.488281 529.910156 187.488281 952.230469 C 187.488281 1374.554688 529.847656 1716.914062 952.171875 1716.914062 C 1374.492188 1716.914062 1716.855469 1374.554688 1716.855469 952.230469 C 1716.855469 529.910156 1374.492188 187.546875 952.171875 187.546875 " clip-rule="nonzero"/></clipPath><clipPath id="94f2f4103e"><path d="M 30.640625 30.699219 L 1844.023438 30.699219 L 1844.023438 1844.085938 L 30.640625 1844.085938 Z M 30.640625 30.699219 " clip-rule="nonzero"/></clipPath><clipPath id="705adc4a0f"><path d="M 376.875 494 L 1555 494 L 1555 1410 L 376.875 1410 Z M 376.875 494 " clip-rule="nonzero"/></clipPath><clipPath id="572ac28646"><path d="M 79.011719 79.074219 L 1795.652344 79.074219 L 1795.652344 1795.710938 L 79.011719 1795.710938 Z M 79.011719 79.074219 " clip-rule="nonzero"/></clipPath></defs><g clip-path="url(#e89b27f247)"><g clip-path="url(#82ffee19dc)"><path fill="#ffffff" d="M 187.488281 187.546875 L 1716.855469 187.546875 L 1716.855469 1716.914062 L 187.488281 1716.914062 Z M 187.488281 187.546875 " fill-opacity="1" fill-rule="nonzero"/></g></g><path stroke-linecap="butt" transform="matrix(0.664815, 0.349185, -0.348726, 0.663941, 457.275233, 1057.063483)" fill="none" stroke-linejoin="miter" d="M -0.0000522686 1.998913 L 106.867078 1.998864 " stroke="#000000" stroke-width="4" stroke-opacity="1" stroke-miterlimit="4"/><g clip-path="url(#94f2f4103e)"><path fill="#000000" d="M 937.332031 30.699219 C 436.386719 30.699219 30.640625 436.445312 30.640625 937.390625 C 30.640625 1438.339844 436.386719 1844.085938 937.332031 1844.085938 C 1438.28125 1844.085938 1844.023438 1438.339844 1844.023438 937.390625 C 1844.023438 436.445312 1438.28125 30.699219 937.332031 30.699219 Z M 937.332031 1662.746094 C 537.480469 1662.746094 211.980469 1337.242188 211.980469 937.390625 C 211.980469 537.542969 537.480469 212.039062 937.332031 212.039062 C 1337.183594 212.039062 1662.6875 537.542969 1662.6875 937.390625 C 1662.6875 1337.242188 1337.183594 1662.746094 937.332031 1662.746094 Z M 937.332031 1662.746094 " fill-opacity="1" fill-rule="nonzero"/></g><path fill="#000000" d="M 703.992188 847.425781 L 468.46875 847.425781 C 461.273438 847.425781 455.382812 853.3125 455.382812 860.507812 L 455.382812 939 C 455.382812 946.195312 461.273438 952.082031 468.46875 952.082031 L 703.992188 952.082031 C 711.1875 952.082031 717.078125 946.195312 717.078125 939 L 717.078125 860.507812 C 717.078125 853.3125 711.1875 847.425781 703.992188 847.425781 Z M 690.90625 925.917969 L 481.554688 925.917969 L 481.554688 873.589844 L 690.90625 873.589844 Z M 690.90625 925.917969 " fill-opacity="1" fill-rule="nonzero"/><g clip-path="url(#705adc4a0f)"><path fill="#000000" d="M 1538.792969 690.699219 L 1468.003906 704.828125 C 1468.003906 704.828125 1466.957031 704.175781 1466.433594 704.042969 L 1374.839844 677.878906 C 1367.90625 675.917969 1360.710938 679.972656 1358.617188 686.90625 C 1356.652344 693.839844 1360.710938 701.035156 1367.644531 703.128906 L 1412.785156 715.949219 L 1327.34375 733.085938 C 1326.558594 732.433594 1325.90625 731.648438 1324.859375 731.125 L 1220.179688 678.796875 C 1213.636719 675.527344 1205.917969 678.140625 1202.648438 684.683594 C 1199.375 691.09375 1201.992188 698.941406 1208.535156 702.214844 L 1286.519531 741.199219 L 1151.617188 768.148438 L 1116.8125 744.992188 C 1110.792969 740.9375 1102.679688 742.636719 1098.625 748.65625 C 1094.566406 754.671875 1096.269531 762.785156 1102.289062 766.839844 L 1115.242188 775.472656 L 1015.40625 795.488281 C 1008.339844 796.925781 1003.761719 803.859375 1005.199219 810.925781 C 1006.378906 817.203125 1011.875 821.390625 1018.023438 821.390625 C 1018.808594 821.390625 1019.722656 821.390625 1020.640625 821.128906 L 1070.363281 811.1875 L 1070.363281 886.800781 L 952.601562 886.800781 L 952.601562 533.453125 C 952.601562 511.867188 934.9375 494.207031 913.347656 494.207031 L 468.46875 494.207031 C 446.878906 494.207031 429.214844 511.867188 429.214844 533.453125 L 429.214844 755.851562 L 416.128906 755.851562 C 394.542969 755.851562 376.875 773.511719 376.875 795.097656 L 376.875 1370.710938 C 376.875 1392.296875 394.542969 1409.957031 416.128906 1409.957031 L 1462.902344 1409.957031 C 1484.488281 1409.957031 1502.15625 1392.296875 1502.15625 1370.710938 L 1502.15625 724.714844 L 1544.023438 716.339844 C 1551.089844 714.902344 1555.671875 707.96875 1554.230469 700.90625 C 1552.792969 693.839844 1545.988281 689.261719 1538.792969 690.699219 Z M 1305.886719 991.328125 L 795.585938 991.328125 L 795.585938 912.835938 L 1292.800781 912.835938 C 1296.855469 912.835938 1300.78125 914.796875 1303.269531 918.066406 L 1342.523438 970.398438 C 1345.53125 974.453125 1346.054688 979.554688 1343.699219 984.132812 C 1341.476562 988.710938 1337.027344 991.328125 1332.054688 991.328125 Z M 874.09375 1068.382812 C 890.710938 1085.390625 913.871094 1095.984375 939.515625 1095.984375 C 965.160156 1095.984375 988.320312 1085.390625 1004.9375 1068.382812 L 1004.9375 1148.3125 L 874.09375 1148.3125 Z M 875.402344 1017.492188 L 1003.628906 1017.492188 C 997.609375 1047.320312 971.179688 1069.820312 939.515625 1069.820312 C 907.851562 1069.820312 881.417969 1047.320312 875.402344 1017.492188 Z M 926.429688 533.453125 L 926.429688 651.191406 L 905.757812 651.191406 C 898.691406 651.191406 892.019531 653.941406 887.046875 658.910156 L 860.878906 684.421875 C 860.878906 675.527344 856.429688 667.414062 849.101562 662.445312 L 829.210938 648.839844 L 845.566406 632.484375 C 851.195312 626.859375 853.941406 619.140625 853.15625 611.292969 C 852.371094 603.441406 848.183594 596.378906 841.511719 591.929688 L 788.125 556.085938 L 814.949219 520.242188 L 913.085938 520.242188 C 920.28125 520.242188 926.167969 526.128906 926.167969 533.324219 Z M 455.382812 533.453125 C 455.382812 526.257812 461.273438 520.371094 468.46875 520.371094 L 612.398438 520.371094 L 612.398438 533.453125 C 612.398438 540.648438 618.289062 546.535156 625.484375 546.535156 C 632.679688 546.535156 638.570312 540.648438 638.570312 533.453125 L 638.570312 520.371094 L 690.90625 520.371094 L 690.90625 559.617188 C 690.90625 566.8125 696.796875 572.699219 703.992188 572.699219 C 711.1875 572.699219 717.078125 566.8125 717.078125 559.617188 L 717.078125 520.371094 L 782.5 520.371094 L 767.320312 540.519531 C 763.003906 546.273438 761.171875 553.730469 762.480469 560.796875 C 763.789062 567.859375 767.84375 574.269531 773.863281 578.324219 L 827.25 614.171875 L 810.894531 630.523438 C 805.265625 636.148438 802.519531 643.867188 803.304688 651.714844 C 804.089844 659.566406 808.277344 666.628906 814.949219 671.078125 L 834.839844 684.421875 C 834.839844 695.148438 841.25 704.699219 851.195312 708.753906 C 854.464844 710.0625 857.867188 710.714844 861.269531 710.714844 C 868.074219 710.714844 874.878906 707.96875 879.851562 702.996094 L 905.757812 677.226562 L 926.429688 677.226562 L 926.429688 886.539062 L 795.585938 886.539062 L 795.585938 794.964844 C 795.585938 773.378906 777.921875 755.71875 756.332031 755.71875 L 455.382812 755.71875 Z M 403.046875 1370.710938 L 403.046875 795.097656 C 403.046875 787.902344 408.933594 782.015625 416.128906 782.015625 L 756.332031 782.015625 C 763.527344 782.015625 769.414062 787.902344 769.414062 795.097656 L 769.414062 1383.792969 L 416.128906 1383.792969 C 408.933594 1383.792969 403.046875 1377.90625 403.046875 1370.710938 Z M 795.585938 1017.492188 L 847.921875 1017.492188 L 847.921875 1161.394531 C 847.921875 1168.589844 853.8125 1174.476562 861.007812 1174.476562 L 1018.023438 1174.476562 C 1025.21875 1174.476562 1031.109375 1168.589844 1031.109375 1161.394531 L 1031.109375 1017.492188 L 1292.800781 1017.492188 L 1292.800781 1383.792969 L 1240.460938 1383.792969 L 1240.460938 1135.230469 C 1240.460938 1128.035156 1234.574219 1122.148438 1227.378906 1122.148438 L 1096.53125 1122.148438 C 1089.335938 1122.148438 1083.445312 1128.035156 1083.445312 1135.230469 L 1083.445312 1383.792969 L 795.585938 1383.792969 Z M 1109.617188 1383.792969 L 1109.617188 1148.3125 L 1214.292969 1148.3125 L 1214.292969 1383.792969 Z M 1475.984375 773.902344 L 1408.730469 807.523438 L 1347.753906 795.359375 C 1340.691406 793.917969 1333.753906 798.496094 1332.316406 805.5625 C 1330.875 812.625 1335.457031 819.558594 1342.523438 821 L 1373.007812 827.148438 L 1361.886719 838.265625 C 1357.308594 842.847656 1356.785156 850.171875 1360.710938 855.40625 L 1399.964844 907.734375 C 1402.582031 911.132812 1406.503906 912.964844 1410.429688 912.964844 C 1413.179688 912.964844 1415.925781 912.179688 1418.28125 910.351562 C 1424.039062 906.03125 1425.214844 897.789062 1420.898438 892.035156 L 1388.449219 848.734375 L 1403.757812 833.425781 L 1407.8125 834.210938 C 1408.730469 834.34375 1409.515625 834.472656 1410.429688 834.472656 C 1411.738281 834.472656 1413.046875 834.210938 1414.355469 833.820312 C 1414.75 833.820312 1415.011719 833.558594 1415.273438 833.425781 C 1415.535156 833.425781 1415.925781 833.296875 1416.1875 833.035156 L 1475.722656 803.207031 L 1475.722656 1370.710938 C 1475.722656 1377.90625 1469.835938 1383.792969 1462.640625 1383.792969 L 1318.707031 1383.792969 L 1318.707031 1017.492188 L 1331.792969 1017.492188 C 1346.707031 1017.492188 1360.1875 1009.121094 1366.859375 995.777344 C 1373.53125 982.433594 1372.09375 966.601562 1363.195312 954.699219 L 1323.941406 902.371094 C 1316.613281 892.558594 1304.839844 886.671875 1292.539062 886.671875 L 1096.269531 886.671875 L 1096.269531 805.824219 L 1475.722656 729.949219 L 1475.722656 773.902344 Z M 1475.984375 773.902344 " fill-opacity="1" fill-rule="nonzero"/></g><path fill="#000000" d="M 625.484375 598.863281 L 520.808594 598.863281 C 513.609375 598.863281 507.722656 604.75 507.722656 611.945312 L 507.722656 690.4375 C 507.722656 697.632812 513.609375 703.519531 520.808594 703.519531 L 625.484375 703.519531 C 632.679688 703.519531 638.570312 697.632812 638.570312 690.4375 L 638.570312 611.945312 C 638.570312 604.75 632.679688 598.863281 625.484375 598.863281 Z M 612.398438 677.355469 L 533.890625 677.355469 L 533.890625 625.027344 L 612.398438 625.027344 Z M 612.398438 677.355469 " fill-opacity="1" fill-rule="nonzero"/><path fill="#000000" d="M 580.210938 1176.046875 L 598.660156 1157.601562 C 603.765625 1152.5 603.765625 1144.257812 598.660156 1139.15625 C 593.558594 1134.054688 585.316406 1134.054688 580.210938 1139.15625 L 561.761719 1157.601562 L 524.734375 1120.578125 L 543.183594 1102.132812 C 548.285156 1097.03125 548.285156 1088.789062 543.183594 1083.6875 C 538.078125 1078.585938 529.835938 1078.585938 524.734375 1083.6875 L 506.285156 1102.132812 L 478.542969 1074.398438 C 473.441406 1069.296875 465.199219 1069.296875 460.09375 1074.398438 C 454.992188 1079.5 454.992188 1087.742188 460.09375 1092.84375 L 487.835938 1120.578125 L 469.386719 1139.027344 C 464.28125 1144.128906 464.28125 1152.371094 469.386719 1157.472656 C 472.003906 1160.085938 475.273438 1161.265625 478.675781 1161.265625 C 482.078125 1161.265625 485.347656 1159.957031 487.964844 1157.472656 L 506.414062 1139.027344 L 543.445312 1176.046875 L 524.996094 1194.492188 C 519.890625 1199.597656 519.890625 1207.835938 524.996094 1212.941406 C 527.613281 1215.554688 530.882812 1216.734375 534.285156 1216.734375 C 537.6875 1216.734375 540.957031 1215.425781 543.574219 1212.941406 L 562.023438 1194.492188 L 589.761719 1222.226562 C 592.378906 1224.84375 595.652344 1226.023438 599.054688 1226.023438 C 602.457031 1226.023438 605.726562 1224.714844 608.34375 1222.226562 C 613.445312 1217.125 613.445312 1208.882812 608.34375 1203.78125 L 580.605469 1176.046875 Z M 580.210938 1176.046875 " fill-opacity="1" fill-rule="nonzero"/><path stroke-linecap="butt" transform="matrix(0.749952, 0, 0, 0.749952, 513.847698, 406.196224)" fill="none" stroke-linejoin="miter" d="M 390.405155 1184.267335 L 523.679315 1050.993175 L 529.388014 795.002823 L 446.622296 680.563202 L 222.029788 665.442442 L 234.869152 514.474441 L 315.634741 519.323709 L 328.474105 606.938695 L 503.704077 612.642186 L 507.412648 440.844725 L 412.661788 334.681676 L 154.39004 325.264407 L 26.824579 454.824787 L 23.402484 720.232409 L 133.274104 854.647267 L 322.484138 854.647267 L 322.484138 996.197999 L 232.587756 982.217937 L 220.88909 901.452348 L 38.528453 908.588222 L 30.251881 1059.269747 L 149.540771 1183.126637 Z M 814.885464 1177.417938 L 806.608892 825.541237 L 853.413973 826.681935 L 883.660702 850.084475 L 930.465783 1168.000668 L 1136.223751 1150.593304 L 1078.865911 783.304157 L 962.144895 666.58314 L 1145.64623 349.807645 L 941.02375 328.686501 L 805.468194 567.269488 L 798.332321 330.973105 L 617.112382 325.264407 L 599.705017 1171.422763 Z M 814.885464 1177.417938 " stroke="#bfbfbf" stroke-width="112.510475" stroke-opacity="1" stroke-miterlimit="4"/><g fill="#000000" fill-opacity="1"><g transform="translate(513.847698, 1282.140124)"><g><path d="M 292.796875 12.273438 L 392.734375 -87.664062 L 397.117188 -279.648438 L 334.878906 -365.558594 L 166.5625 -376.957031 L 176.203125 -490.042969 L 236.691406 -486.535156 L 246.335938 -420.789062 L 377.832031 -416.40625 L 380.460938 -545.269531 L 309.453125 -625.046875 L 115.714844 -632.058594 L 20.164062 -534.75 L 17.53125 -335.753906 L 99.9375 -234.941406 L 241.953125 -234.941406 L 241.953125 -128.867188 L 174.453125 -139.386719 L 165.683594 -199.875 L 28.929688 -194.613281 L 22.792969 -81.527344 L 112.210938 11.394531 Z M 292.796875 12.273438 "/></g></g></g><g fill="#000000" fill-opacity="1"><g transform="translate(928.498264, 1282.140124)"><g><path d="M 196.367188 7.011719 L 190.230469 -256.855469 L 225.296875 -255.980469 L 248.089844 -238.445312 L 283.15625 0 L 437.445312 -13.148438 L 394.488281 -288.414062 L 306.824219 -376.078125 L 444.457031 -613.648438 L 291.046875 -629.429688 L 189.355469 -450.59375 L 184.09375 -627.675781 L 48.214844 -632.058594 L 35.066406 2.628906 Z M 196.367188 7.011719 "/></g></g></g><g clip-path="url(#572ac28646)"><path fill="#bfbfbf" d="M 937.332031 1795.710938 C 463.882812 1795.710938 79.011719 1410.84375 79.011719 937.394531 C 79.011719 463.945312 464.226562 79.074219 937.332031 79.074219 C 1166.675781 79.074219 1382.285156 168.339844 1544.335938 330.390625 C 1706.386719 492.441406 1795.652344 708.050781 1795.652344 937.394531 C 1795.652344 1410.84375 1410.78125 1795.710938 937.332031 1795.710938 Z M 937.332031 135.035156 C 494.78125 135.035156 134.976562 494.84375 134.976562 937.394531 C 134.976562 1379.941406 494.78125 1739.75 937.332031 1739.75 C 1379.882812 1739.75 1739.691406 1379.941406 1739.691406 937.394531 C 1739.691406 723.15625 1656.261719 521.621094 1504.855469 369.871094 C 1353.445312 218.121094 1151.570312 135.035156 937.332031 135.035156 Z M 937.332031 135.035156 " fill-opacity="1" fill-rule="nonzero"/></g></svg>