<svg xmlns="http://www.w3.org/2000/svg" xmlns:xlink="http://www.w3.org/1999/xlink" width="5000" zoomAndPan="magnify" viewBox="0 0 3750 1499.999933" height="2000" preserveAspectRatio="xMidYMid meet" version="1.0"><defs><g/></defs><path stroke-linecap="butt" transform="matrix(6.392209, 0, 0, 6.392209, 78.333329, -143.185481)" fill="none" stroke-linejoin="miter" d="M 74.812554 226.117245 L 100.351457 200.578341 L 101.445318 151.52326 L 85.586167 129.593487 L 42.546711 126.695061 L 45.007592 97.765799 L 60.484197 98.695276 L 62.945079 115.484514 L 96.523555 116.578374 L 97.234259 83.656215 L 79.078 63.312234 L 29.585986 61.507669 L 5.140332 86.335869 L 4.484627 137.195515 L 25.539312 162.953191 L 61.79683 162.953191 L 61.79683 190.077887 L 44.570048 187.398233 L 42.327939 171.921628 L 7.383053 173.28926 L 5.796649 202.164134 L 28.65651 225.898472 Z M 74.812554 226.117245 " stroke="#d9d9d9" stroke-width="21.559999" stroke-opacity="1" stroke-miterlimit="4"/><g fill="#000000" fill-opacity="1"><g transform="translate(78.333329, 1282.277048)"><g><path d="M 478.238281 20.046875 L 641.472656 -143.183594 L 648.628906 -456.761719 L 546.96875 -597.082031 L 272.050781 -615.699219 L 287.804688 -800.40625 L 386.601562 -794.679688 L 402.351562 -687.289062 L 617.128906 -680.132812 L 621.425781 -890.613281 L 505.445312 -1020.914062 L 189.003906 -1032.367188 L 32.933594 -873.429688 L 28.636719 -548.402344 L 163.230469 -383.738281 L 395.191406 -383.738281 L 395.191406 -210.484375 L 284.9375 -227.664062 L 270.621094 -326.464844 L 47.25 -317.871094 L 37.226562 -133.164062 L 183.277344 18.613281 Z M 478.238281 20.046875 "/></g></g></g><path stroke-linecap="butt" transform="matrix(6.392209, 0, 0, 6.392209, 798.146511, -143.185481)" fill="none" stroke-linejoin="miter" d="M 52.663901 225.6797 L 50.640564 158.031427 L 67.21103 158.250199 L 66.281554 224.093907 L 111.343737 220.320393 L 105.710658 57.898539 L 64.312604 60.359421 L 69.671912 122.429614 L 48.835999 123.304703 L 49.711088 61.726442 L 10.992076 59.046788 L 8.968739 222.562502 Z M 52.663901 225.6797 " stroke="#d9d9d9" stroke-width="21.559999" stroke-opacity="1" stroke-miterlimit="4"/><g fill="#000000" fill-opacity="1"><g transform="translate(798.146511, 1282.277048)"><g><path d="M 336.484375 17.183594 L 323.597656 -415.238281 L 429.554688 -413.804688 L 423.828125 7.160156 L 711.632812 -17.183594 L 675.835938 -1055.277344 L 410.941406 -1039.527344 L 445.308594 -642.902344 L 312.144531 -637.175781 L 317.871094 -1030.933594 L 70.160156 -1048.117188 L 57.273438 -2.863281 Z M 336.484375 17.183594 "/></g></g></g><path stroke-linecap="butt" transform="matrix(6.392209, 0, 0, 6.392209, 1542.395447, -143.185481)" fill="none" stroke-linejoin="miter" d="M 8.968906 226.117245 L 47.249762 221.906185 L 49.710643 187.617005 L 64.968476 188.492094 L 66.062337 224.367067 L 108.883021 224.093907 L 101.718538 86.117097 L 89.577903 60.578193 L 39.429572 61.288897 L 11.867332 95.52369 Z M 67.866902 152.453347 L 48.398621 151.52326 L 50.421958 94.429829 L 67.211196 95.52369 Z M 67.866902 152.453347 " stroke="#d9d9d9" stroke-width="21.559999" stroke-opacity="1" stroke-miterlimit="4"/><g fill="#000000" fill-opacity="1"><g transform="translate(1542.395447, 1282.277048)"><g><path d="M 57.273438 20.046875 L 302.121094 -7.160156 L 317.871094 -226.234375 L 415.238281 -220.503906 L 422.398438 8.589844 L 695.882812 7.160156 L 650.0625 -874.863281 L 572.742188 -1038.09375 L 252.007812 -1033.800781 L 75.886719 -814.726562 Z M 433.851562 -451.035156 L 309.28125 -456.761719 L 322.167969 -821.882812 L 429.554688 -814.726562 Z M 433.851562 -451.035156 "/></g></g></g><path stroke-linecap="butt" transform="matrix(6.392209, 0, 0, 6.392209, 2241.827242, -143.185481)" fill="none" stroke-linejoin="miter" d="M 34.945024 224.093907 L 88.046779 223.000046 L 103.468996 196.586054 L 103.468996 163.663895 L 69.234204 165.1953 L 63.601737 188.929638 L 48.617064 187.835777 L 49.710924 99.351592 L 67.210867 98.695276 L 69.234204 125.109268 L 107.734443 121.773297 L 106.640582 88.577978 L 92.968542 63.968551 L 25.976586 63.968551 L 10.991913 89.289293 L 8.968576 202.82045 Z M 34.945024 224.093907 " stroke="#d9d9d9" stroke-width="21.559999" stroke-opacity="1" stroke-miterlimit="4"/><g fill="#000000" fill-opacity="1"><g transform="translate(2241.827242, 1282.277048)"><g><path d="M 223.371094 7.160156 L 562.71875 0 L 661.515625 -168.957031 L 661.515625 -379.441406 L 442.441406 -369.417969 L 406.648438 -217.640625 L 310.710938 -224.800781 L 317.871094 -790.382812 L 429.554688 -794.679688 L 442.441406 -625.71875 L 688.722656 -647.199219 L 681.5625 -859.113281 L 594.21875 -1016.617188 L 166.09375 -1016.617188 L 70.160156 -854.816406 L 57.273438 -128.867188 Z M 223.371094 7.160156 "/></g></g></g><path stroke-linecap="butt" transform="matrix(6.392209, 0, 0, 6.392209, 2884.022403, -143.185481)" fill="none" stroke-linejoin="miter" d="M 50.20288 224.804611 L 48.617087 157.375111 L 57.586136 157.593883 L 63.382988 162.078102 L 72.351426 223.000046 L 111.781141 219.664076 L 100.789366 149.281151 L 78.422049 126.913833 L 113.585706 66.21066 L 74.374763 62.163986 L 48.398315 107.883096 L 47.031294 62.60153 L 12.30457 61.507669 L 8.9686 223.656363 Z M 50.20288 224.804611 " stroke="#d9d9d9" stroke-width="21.559999" stroke-opacity="1" stroke-miterlimit="4"/><g fill="#000000" fill-opacity="1"><g transform="translate(2884.022403, 1282.277048)"><g><path d="M 320.734375 11.453125 L 310.710938 -419.535156 L 367.988281 -418.101562 L 405.214844 -389.464844 L 462.488281 0 L 714.496094 -21.476562 L 644.335938 -471.082031 L 501.148438 -614.265625 L 725.949219 -1002.296875 L 475.375 -1028.070312 L 309.28125 -735.972656 L 300.691406 -1025.207031 L 78.753906 -1032.367188 L 57.273438 4.296875 Z M 320.734375 11.453125 "/></g></g></g></svg>